<svg xmlns="http://www.w3.org/2000/svg" xmlns:xlink="http://www.w3.org/1999/xlink" id="Layer_1" x="0" y="0" version="1.1" viewBox="0 0 403.2 370.5" xml:space="preserve" style="enable-background:new 0 0 403.2 370.5"><style type="text/css">.st0{fill:#fff5ec}.st1{fill:#fff}.st2{opacity:.54}.st3{fill:#ffbe13}.st4{fill:#d2d2d2}.st5{fill:#eddcce}.st6{fill:#ffc9ae}.st7{fill:#ffb890}.st8{fill:#363636}.st9{fill:#073d4c}.st10{fill:#074559}.st11{fill:#919191}.st12{fill:#d1d1d1}.st13,.st14{fill:#c9c9c9}.st14{opacity:.21;enable-background:new}.st15{fill:#0c5870}.st16,.st17{fill:#b64401}.st17{opacity:.31;enable-background:new}.st18{fill:#f29b62}.st19{opacity:.68}.st20{fill:#f29d86}</style><g><g id="Layer_2_1_"><g id="OBJECTS"><circle cx="199.1" cy="181.5" r="181.5" class="st0"/><path d="M270.6,26.6h47.6c1.8,0,3.3,1.5,3.3,3.3v0.6c0,1.8-1.5,3.3-3.3,3.3h-47.6c-1.8,0-3.3-1.5-3.3-3.3v-0.6 C267.3,28.1,268.7,26.6,270.6,26.6z" class="st1"/><path d="M270.6,41h47.6c1.8,0,3.3,1.5,3.3,3.3v0.7c0,1.8-1.5,3.3-3.3,3.3h-47.6c-1.8,0-3.3-1.5-3.3-3.3v-0.7 C267.3,42.5,268.7,41,270.6,41z" class="st1"/><path d="M304.4,54.5h47.6c1.8,0,3.3,1.5,3.3,3.3v0.7c0,1.8-1.5,3.3-3.3,3.3h-47.6c-1.8,0-3.3-1.5-3.3-3.3v-0.7 C301.1,55.9,302.5,54.5,304.4,54.5z" class="st1"/><path d="M304.4,68.9h47.6c1.8,0,3.3,1.5,3.3,3.3v0.6c0,1.8-1.5,3.3-3.3,3.3h-47.6c-1.8,0-3.3-1.5-3.3-3.3v-0.6 C301.1,70.3,302.5,68.9,304.4,68.9z" class="st1"/><path d="M31.4,66h39.9c1.5,0,2.7,1.2,2.7,2.7v0.5c0,1.5-1.2,2.7-2.7,2.7H31.4c-1.5,0-2.7-1.2-2.7-2.7v-0.5 C28.7,67.2,29.9,66,31.4,66z" class="st1"/><path d="M31.4,78.1h39.9c1.5,0,2.7,1.2,2.7,2.7v0.5c0,1.5-1.2,2.7-2.7,2.7H31.4c-1.5,0-2.7-1.2-2.7-2.7v-0.5 C28.7,79.3,29.9,78.1,31.4,78.1z" class="st1"/><path d="M59.8,89.4h39.9c1.5,0,2.7,1.2,2.7,2.7v0.5c0,1.5-1.2,2.7-2.7,2.7H59.8c-1.5,0-2.7-1.2-2.7-2.7v-0.5 C57.1,90.6,58.3,89.4,59.8,89.4z" class="st1"/><path d="M59.8,101.4h39.9c1.5,0,2.7,1.2,2.7,2.7v0.5c0,1.5-1.2,2.7-2.7,2.7H59.8c-1.5,0-2.7-1.2-2.7-2.7v-0.5 C57.1,102.7,58.3,101.4,59.8,101.4z" class="st1"/><path d="M303.5,234.6h39.9c1.5,0,2.7,1.2,2.7,2.7v0.6c0,1.5-1.2,2.7-2.7,2.7h-39.9c-1.5,0-2.7-1.2-2.7-2.7v-0.6 C300.8,235.8,302,234.6,303.5,234.6z" class="st1"/><path d="M303.5,246.7h39.9c1.5,0,2.7,1.2,2.7,2.7v0.6c0,1.5-1.2,2.7-2.7,2.7h-39.9c-1.5,0-2.7-1.2-2.7-2.7v-0.6 C300.8,247.9,302,246.7,303.5,246.7z" class="st1"/><path d="M331.9,258h39.9c1.5,0,2.7,1.2,2.7,2.7v0.5c0,1.5-1.2,2.7-2.7,2.7h-39.9c-1.5,0-2.7-1.2-2.7-2.7v-0.5 C329.1,259.2,330.4,258,331.9,258z" class="st1"/><path d="M331.9,270.1h39.9c1.5,0,2.7,1.2,2.7,2.7v0.5c0,1.5-1.2,2.7-2.7,2.7h-39.9c-1.5,0-2.7-1.2-2.7-2.7v-0.5 C329.1,271.3,330.4,270.1,331.9,270.1z" class="st1"/><g class="st2"><path d="M104.7,63.5c-3.7,0.1-7.3-1.5-9.7-4.5c-3-4.1-4.1-9.4-2.9-14.4c0.9-3.8,2.9-6.6,5.8-8l0,0 c12.7-6.1,18.8,2.9,20.8,7c3.6,7.4-2.9,15.8-6,17.7C110.2,62.8,107.5,63.5,104.7,63.5z M99.3,39.5c-2,1-3.4,3-4.1,5.9 c-0.9,4.1-0.1,8.3,2.3,11.7c1.7,2.2,4.4,3.4,7.2,3.3h0.1c2.2,0,4.4-0.6,6.3-1.7c1.9-1.4,3.4-3.3,4.3-5.5c1-2.1,1.9-5.3,0.5-8.2 C113.5,40.1,108.6,35.1,99.3,39.5z" class="st3"/><path d="M109.4,60.1c0,0,1.4,5.2,2.9,5.8c1.7,0.7,7-3.4,6.3-4.8s-4.2-4.9-4.2-4.9L109.4,60.1z" class="st3"/><path d="M112,60.2c-0.5,0-1-0.3-1.3-0.7l-6.3-9.9c-0.4-0.7-0.2-1.7,0.6-2.1c0.7-0.4,1.6-0.2,2.1,0.5l6.3,9.9 c0.5,0.7,0.2,1.7-0.5,2.2C112.6,60.1,112.3,60.2,112,60.2z" class="st3"/><path d="M108.4,45.5c1.7,1.7,1.7,4.4,0,6.1c-1.7,1.7-4.4,1.7-6.1,0c-1.7-1.7-1.7-4.4,0-6.1 C104,43.8,106.8,43.8,108.4,45.5z" class="st3"/><path d="M247.3,91c-0.9,0-1.8-0.1-2.7-0.3c-4.3-1.3-7.6-4.8-8.6-9.1c-1-4.1-0.1-8.5,2.3-11.9 c2.4-3.4,6.3-5.6,10.5-5.9c4.3-0.3,8.1,2.5,9.2,6.7c1.1,3.5-0.6,7.3-3.9,8.8c-0.6,0.3-1.2,0.4-1.8,0.4c-0.2,2.6-2.5,4.5-5.1,4.2 c-1-0.1-1.9-0.5-2.6-1.1c-2-1.9-2-5.4-1-8c0.8-2.5,3-4.2,5.6-4.3l0,0c1,0,1.7,0.8,1.7,1.7c0,0.1,0,0.3,0,0.4 c0.3,0.2,0.6,0.5,0.7,0.8c0.2,0.5,0.4,0.9,0.6,1.4c0.2,0.4,0.3,0.8,0.5,1.2c1.8-0.8,2.6-2.9,2-4.7c-0.6-2.5-2.9-4.3-5.5-4.1 c-3.2,0.2-6.1,1.8-7.9,4.4c-1.9,2.6-2.5,5.9-1.8,9c0.7,3.1,3.1,5.6,6.1,6.6c2.8,0.7,5.6-0.3,8.2-2.9c0.7-0.7,1.8-0.7,2.5,0 c0.7,0.7,0.7,1.8,0,2.4c0,0,0,0,0,0C253.9,89.3,250.7,90.9,247.3,91z M248.3,74.3c-0.7,0.4-1.2,1.1-1.4,1.8 c-0.7,1.7-0.5,3.6,0.2,4.2c0.2,0.2,0.7,0.2,1.3-0.1c0.8-0.3,0.7-3.3,0-5.5C248.3,74.6,248.3,74.4,248.3,74.3L248.3,74.3z" class="st3"/><path d="M327.7,144.7c-0.2-0.1-0.5-0.1-0.7-0.2c-3.8-1.2-7-5.6-5.9-11.6c0.9-4.7,3.5-8.5,6.8-10.1 c2.2-1.1,4.8-1,7,0.2c0.9,0.4,1.3,1.4,0.9,2.2s-1.4,1.3-2.2,0.9c-0.1,0-0.2-0.1-0.3-0.2c-1.2-0.7-2.7-0.7-3.9-0.1 c-2.3,1.1-4.2,4-4.9,7.7c-0.8,4.1,1.2,7,3.5,7.7c2,0.6,3.8-0.3,4.9-2.6c0.4-0.8,1.5-1.2,2.3-0.8c0.8,0.4,1.2,1.4,0.8,2.2 C334.6,143.1,331.5,145.6,327.7,144.7z" class="st3"/><path d="M344.7,121.8l-0.9,0.3l-0.4,0.1c-0.1-0.4-0.3-0.9-0.4-1.3c-0.3-0.5-0.9-0.7-1.5-0.4 c-0.4,0.2-0.6,0.6-0.5,1.1c0.1,0.4,0.3,0.8,0.4,1.3l-1.7,0.5c-1.5,0.4-1.1,3,0.5,2.8l1.9-0.3c0.1,0.4,0.3,0.8,0.4,1.2 c0.3,0.6,0.9,0.8,1.5,0.6c0.1,0,0.1-0.1,0.2-0.1c0.1-0.1,0.2-0.2,0.3-0.3c0.2-0.5,0.3-1.1,0.1-1.7l0.9-0.1 C347.8,124.9,347.2,121.2,344.7,121.8z" class="st3"/><path d="M355,119.9l-0.9,0.3l-0.4,0.1c-0.1-0.4-0.3-0.9-0.4-1.3c-0.3-0.5-0.9-0.7-1.5-0.4c-0.4,0.2-0.6,0.6-0.5,1.1 c0.1,0.4,0.3,0.8,0.4,1.3l-1.7,0.5c-1.5,0.4-1.1,3,0.5,2.8l1.9-0.3c0.1,0.4,0.3,0.8,0.4,1.2c0.3,0.6,0.9,0.8,1.5,0.6 c0.1,0,0.1-0.1,0.2-0.1c0.1-0.1,0.2-0.2,0.3-0.3c0.2-0.5,0.3-1.1,0.1-1.7l0.9-0.1C358.1,123,357.5,119.2,355,119.9z" class="st3"/><path d="M287.7,282.7c-0.2,0-0.5-0.1-0.7-0.2c-0.7-0.4-1-1.3-0.6-2.1l10-19.4c0.4-0.8,1.3-1.1,2-0.7 c0.8,0.4,1.1,1.3,0.7,2c0,0,0,0,0,0.1l-10,19.4C288.8,282.3,288.3,282.7,287.7,282.7z" class="st3"/><path d="M282.4,278.6c-0.6,0-1.1-0.3-1.4-0.8l-5.7-10.8c-0.4-0.7-0.1-1.6,0.6-2l10.7-6.3c0.7-0.4,1.7-0.1,2.1,0.6 c0.4,0.7,0.2,1.6-0.5,2l-9.4,5.6l5,9.6c0.4,0.8,0.1,1.7-0.6,2.1C282.9,278.6,282.6,278.7,282.4,278.6z" class="st3"/><path d="M296.2,284c-0.8,0-1.5-0.7-1.5-1.5c0-0.6,0.4-1.2,0.9-1.4l11-4.6l-4-11.3c-0.3-0.8,0-1.7,0.8-2 c0.8-0.3,1.7,0,2,0.8c0,0.1,0.1,0.2,0.1,0.2l4.5,12.6c0.3,0.8-0.1,1.6-0.9,1.9l-12.4,5.2C296.6,284,296.4,284,296.2,284z" class="st3"/><path d="M57.6,228.8c-1-1.7-2.2-3.4-3.6-4.8l-3.3,2.9c-1.8-1.1-3.9-1.7-6-1.6c-0.1-1.4-0.2-2.9-0.6-4.3 c-2.5,0-5,0.9-6.9,2.5c0.4,1.1,1.1,2.1,1.8,2.9c0.1,0.1,0.2,0.3,0.3,0.4l-0.3,0.1c-3,2-4.5,4.1-5.2,6.1 c-0.9-0.2-1.8-0.3-2.8-0.5c-0.2-0.1-0.4-0.1-0.6,0c-0.2,0.1-0.4,0.3-0.5,0.4c-0.3,0.7-0.3,1.5,0,2.2c0.2,1,0.5,2.1,0.7,3.1 c0.1,0.6,0.3,1.2,0.9,1.3c0.4,0.1,0.8,0,1.2-0.3c0.5-0.2,0.9-0.4,1.4-0.6c0.2,0.6,0.4,1.3,0.7,1.9c0.9,1.9,2.2,3.5,3.9,4.8 l-2.3,1.9l1.7,0.9c1.8,0.9,3.8,1.9,5.8,1.9c0.4-1,0.6-2.1,0.8-3.1c1.2-0.2,2.3-0.5,3.4-1c1.5-0.7,2.8-1.8,3.8-3.2 c0.7,0.4,1.4,0.9,2,1.5c0.1,0.1,0.2,0.1,0.3,0.1c0.1,0,0.1-0.1,0.2-0.2l1.3-2.2c0.7-1.1,1.2-2.3,1.5-3.6c-1.1-0.3-2.1-0.7-3.2-1 c0.3-2.1,0.3-4.2-0.2-6.3c1.3-0.5,2.5-1.2,3.6-2c0.1,0,0.1-0.1,0.1-0.1C57.7,229,57.6,228.9,57.6,228.8z M45.8,240.5 c-2.1,1-4.7,0.1-5.7-2c-0.1-0.1-0.1-0.2-0.1-0.3c-0.7-1.5-1.3-3.9,1.9-6c2.6-1.7,5.5-0.3,6.2,1.1S48.9,239.1,45.8,240.5z" class="st3"/><path d="M76,236.6c-0.5-0.9-1.1-1.7-1.8-2.5l-1.7,1.5c-0.9-0.6-2-0.8-3.1-0.8c0-0.7-0.1-1.5-0.3-2.2 c-1.3,0-2.6,0.5-3.6,1.3c0.2,0.5,0.5,1.1,0.9,1.5l0.2,0.2l-0.1,0.1c-1.2,0.7-2.2,1.8-2.7,3.1c-0.5-0.1-0.9-0.2-1.4-0.2 c-0.1,0-0.2,0-0.3,0c-0.1,0.1-0.2,0.1-0.2,0.2c-0.1,0.4-0.1,0.8,0,1.1l0.3,1.6c0.1,0.3,0.2,0.6,0.4,0.7c0.2,0,0.4,0,0.6-0.1 c0.2-0.1,0.5-0.2,0.7-0.3c0.1,0.3,0.2,0.7,0.4,1c0.4,1,1.1,1.8,2,2.4l-1.2,1l0.9,0.4c0.9,0.6,1.9,0.9,3,1 c0.2-0.5,0.3-1.1,0.4-1.6c0.6-0.1,1.2-0.2,1.8-0.5c0.8-0.4,1.5-0.9,2-1.7c0.4,0.2,0.7,0.5,1,0.8c0,0,0.1,0.1,0.1,0.1 s0.1-0.1,0.1-0.1c0.2-0.4,0.4-0.8,0.7-1.1c0.4-0.6,0.6-1.2,0.8-1.9c-0.6-0.1-1.1-0.3-1.7-0.5c0.2-1.1,0.1-2.2-0.1-3.2 c0.7-0.3,1.3-0.6,1.8-1c0,0,0.1,0,0.1-0.1C76.1,236.7,76.1,236.7,76,236.6z M70,242.6c-1.1,0.5-2.4,0.1-2.9-1 c0-0.1-0.1-0.1-0.1-0.2c-0.6-1.1-0.2-2.4,0.9-3c0,0,0.1,0,0.1-0.1c1-0.7,2.5-0.5,3.2,0.6c0,0,0,0,0,0 C71.5,239.7,71.6,241.9,70,242.6L70,242.6z" class="st3"/><path d="M361.9,185.4c-1-1.8-2.2-3.4-3.6-4.8l-3.3,2.9c-1.8-1.1-3.9-1.7-6-1.6c-0.1-1.4-0.2-2.9-0.6-4.3 c-2.5,0-5,0.9-6.9,2.5c0.4,1.1,1.1,2.1,1.8,2.9l0.4,0.4l-0.3,0.1c-3,2-4.5,4.1-5.2,6.1c-0.9-0.2-1.8-0.3-2.8-0.5 c-0.2-0.1-0.4-0.1-0.6,0c-0.2,0.1-0.4,0.2-0.5,0.4c-0.3,0.7-0.3,1.5,0,2.2c0.2,1,0.5,2.1,0.7,3.1c0.1,0.6,0.3,1.2,0.9,1.4 c0.4,0.1,0.8,0,1.2-0.3c0.5-0.2,0.9-0.4,1.4-0.7c0.2,0.6,0.4,1.3,0.7,1.9c0.9,1.9,2.2,3.5,3.9,4.8l-2.3,1.9l1.7,0.9 c1.8,1,3.8,1.9,5.8,1.9c0.4-1,0.6-2.1,0.8-3.1c1.2-0.1,2.3-0.5,3.4-1c1.5-0.7,2.9-1.8,3.8-3.2c0.7,0.4,1.4,0.9,2,1.5 c0.1,0.1,0.2,0.2,0.3,0.1c0.1,0,0.2-0.1,0.2-0.2l1.3-2.2c0.7-1.1,1.2-2.3,1.5-3.6c-1.1-0.3-2.1-0.7-3.2-1 c0.3-2.1,0.3-4.2-0.2-6.3c1.3-0.5,2.5-1.2,3.6-2c0.1,0,0.1-0.1,0.1-0.1C362,185.6,362,185.5,361.9,185.4z M350.2,197.2 c-2.1,1-4.7,0.1-5.7-2c-0.1-0.1-0.1-0.2-0.1-0.3c-0.7-1.5-1.3-3.9,1.9-6c2.6-1.7,5.5-0.3,6.2,1.1S353.3,195.8,350.2,197.2 L350.2,197.2z" class="st3"/><path d="M380.4,193.3c-0.5-0.9-1.1-1.7-1.8-2.5l-1.7,1.5c-0.9-0.6-2-0.9-3-0.8c0-0.7-0.1-1.5-0.3-2.2 c-1.3,0-2.6,0.4-3.6,1.3c0.2,0.5,0.5,1.1,0.9,1.5l0.2,0.2l-0.1,0.1c-1.2,0.7-2.2,1.8-2.7,3.1l-1.4-0.2c-0.1,0-0.2,0-0.3,0 c-0.1,0-0.2,0.1-0.2,0.2c-0.1,0.4-0.1,0.8,0,1.1l0.4,1.6c0.1,0.3,0.2,0.6,0.4,0.7c0.2,0,0.4,0,0.6-0.1l0.7-0.3 c0.1,0.3,0.2,0.7,0.4,1c0.4,1,1.1,1.8,2,2.4l-1.2,1l0.9,0.4c0.9,0.6,1.9,0.9,3,1c0.2-0.5,0.3-1.1,0.4-1.6 c0.6-0.1,1.2-0.2,1.7-0.5c0.8-0.4,1.5-0.9,2-1.6c0.4,0.2,0.7,0.5,1,0.8c0,0,0.1,0.1,0.1,0.1c0,0,0.1,0,0.1-0.1 c0.2-0.4,0.5-0.8,0.7-1.1c0.4-0.6,0.6-1.2,0.8-1.9c-0.6-0.1-1.1-0.3-1.7-0.5c0.2-1.1,0.1-2.2-0.1-3.2c0.7-0.3,1.3-0.6,1.9-1 c0,0,0.1,0,0.1-0.1C380.4,193.5,380.4,193.3,380.4,193.3z M374.4,199.3c-1.1,0.5-2.4,0.1-2.9-1c0-0.1,0-0.1-0.1-0.2 c-0.6-1.1-0.2-2.4,0.9-3c0,0,0.1,0,0.1-0.1c1-0.7,2.5-0.5,3.2,0.6c0,0,0,0,0,0C375.8,196.3,375.9,198.6,374.4,199.3L374.4,199.3 z" class="st3"/><path d="M30,174.3h-0.6c-3.1-0.3-6.4-3.1-6.6-8c-0.1-3.8,1.2-7.2,3.5-9c1.5-1.2,3.5-1.6,5.4-1.1 c0.7,0.2,1.1,0.9,0.9,1.7c-0.2,0.7-0.9,1.1-1.7,0.9c-1-0.3-2.2-0.1-3,0.6c-1.6,1.3-2.5,3.9-2.4,6.8c0.1,3.3,2.1,5.2,4.1,5.4 c1.7,0.1,2.9-0.9,3.3-2.9c0.2-0.7,0.9-1.2,1.6-1c0.7,0.2,1.2,0.9,1,1.6C35.1,171.9,33.1,174.3,30,174.3z" class="st3"/><path d="M39.4,156.7c-1.1-0.3-2.2,0.4-2.4,1.5c-0.1,0.3-0.1,0.6,0,0.9c0.3,1.1,1.5,1.8,2.7,1.5 c0.1,0,0.2-0.1,0.3-0.1c0.2-0.1,0.4-0.2,0.5-0.4c0.3-0.2,0.5-0.5,0.6-0.8C41.3,158.1,40.6,157,39.4,156.7 C39.5,156.7,39.5,156.7,39.4,156.7z" class="st3"/><polygon points="40.9 165.4 40.9 165.4 40.9 165.4" class="st3"/><path d="M42.9,165.5c-0.1-0.2-0.2-0.4-0.3-0.6c-0.3-0.6-0.8-1-1.5-1.1c-0.7-0.1-1.5,0.2-1.8,0.9 c-0.3,0.6-0.4,1.3-0.1,1.9c0.4,0.8,1.2,1.3,2.1,1.2C42.3,167.6,43,166.6,42.9,165.5C42.9,165.5,42.9,165.5,42.9,165.5z" class="st3"/><path d="M48.3,169.8c-0.7,0-1.3-0.5-1.3-1.2l-1.7-18.7c-0.1-0.7,0.5-1.4,1.2-1.5c0.7-0.1,1.4,0.5,1.5,1.2l1.7,18.7 c0.1,0.7-0.5,1.4-1.2,1.5c0,0,0,0,0,0H48.3z" class="st3"/></g><path d="M43.5,272.3c-1.4,0-2.5-1.1-2.5-2.5c0-1.4,1.1-2.5,2.5-2.5c0,0,0,0,0,0h0c1.4,0,2.5,1.1,2.5,2.5 S44.8,272.3,43.5,272.3z" class="st4"/><path d="M102.4,272.3c-1.4,0-2.5-1.1-2.6-2.5c0-1.4,1.1-2.5,2.4-2.5c0,0,0,0,0,0h0.1c1.4,0,2.5,1.1,2.5,2.5 S103.8,272.3,102.4,272.3z M92.6,272.3c-1.4,0-2.5-1.1-2.6-2.5c0-1.4,1.1-2.5,2.4-2.5c0,0,0,0,0,0h0.1c1.4,0,2.5,1.1,2.5,2.5 S94,272.3,92.6,272.3z M82.8,272.3c-1.4,0-2.5-1.1-2.6-2.5c0-1.4,1.1-2.5,2.4-2.5c0,0,0,0,0,0h0.1c1.4,0,2.5,1.1,2.5,2.5 S84.2,272.3,82.8,272.3z M72.9,272.3c-1.4,0-2.5-1.1-2.6-2.5c0-1.4,1.1-2.5,2.4-2.5c0,0,0,0,0,0H73c1.4,0,2.5,1.1,2.5,2.5 S74.4,272.3,72.9,272.3L72.9,272.3z M63.1,272.3c-1.4,0-2.5-1.1-2.5-2.5c0-1.4,1.1-2.5,2.4-2.5c0,0,0,0,0,0h0.1 c1.4,0,2.5,1.1,2.5,2.5S64.5,272.3,63.1,272.3z M53.3,272.3c-1.4,0-2.5-1.1-2.5-2.5c0-1.4,1.1-2.5,2.4-2.5c0,0,0,0,0,0h0.1 c1.4,0,2.5,1.1,2.5,2.5S54.7,272.3,53.3,272.3z" class="st4"/><path d="M112.2,272.3c-1.4,0-2.5-1.1-2.5-2.5c0-1.4,1.1-2.5,2.5-2.5c0,0,0,0,0,0l0,0c1.4,0,2.5,1.1,2.5,2.5 S113.6,272.3,112.2,272.3L112.2,272.3z" class="st4"/><path d="M332,104c-1.4,0-2.5-1.1-2.5-2.5c0-1.4,1.1-2.5,2.5-2.5c0,0,0,0,0,0h0c1.4,0,2.5,1.1,2.5,2.5 S333.4,104,332,104z" class="st4"/><path d="M391,104c-1.4,0-2.5-1.1-2.5-2.5c0-1.4,1.1-2.5,2.4-2.5c0,0,0,0,0,0h0.1c1.4,0,2.5,1.1,2.5,2.5 S392.4,104,391,104L391,104z M381.2,104c-1.4,0-2.5-1.1-2.5-2.5c0-1.3,1-2.5,2.4-2.5h0.1c1.4,0,2.5,1.1,2.5,2.5 S382.5,104,381.2,104L381.2,104z M371.3,104c-1.4,0-2.5-1.1-2.5-2.5c0-1.4,1.1-2.5,2.4-2.5c0,0,0,0,0,0h0.1 c1.4,0,2.5,1.1,2.5,2.5S372.7,104,371.3,104L371.3,104z M361.5,104c-1.4,0-2.5-1.1-2.5-2.5c0-1.4,1.1-2.5,2.4-2.5c0,0,0,0,0,0 h0.1c1.4,0,2.5,1.1,2.5,2.5S362.9,104,361.5,104L361.5,104z M351.7,104c-1.4,0-2.5-1.1-2.5-2.5c0-1.4,1.1-2.5,2.4-2.5 c0,0,0,0,0,0h0.1c1.4,0,2.5,1.1,2.5,2.5S353.1,104,351.7,104L351.7,104z M341.9,104c-1.4,0-2.5-1.1-2.5-2.5c0-1.4,1-2.5,2.4-2.5 h0.1c1.4,0,2.5,1.1,2.5,2.5S343.2,104,341.9,104L341.9,104z" class="st4"/><path d="M400.7,104c-1.4,0-2.5-1.1-2.5-2.5c0-1.4,1.1-2.5,2.5-2.5c0,0,0,0,0,0h0c1.4,0,2.5,1.1,2.5,2.5 S402.1,104,400.7,104z" class="st4"/><path d="M2.5,121c-1.4,0-2.5-1.1-2.5-2.5c0,0,0,0,0,0c0-1.4,1.1-2.5,2.5-2.4l0,0c1.4,0,2.5,1.1,2.5,2.5 S3.9,121,2.5,121L2.5,121z" class="st4"/><path d="M61.5,121c-1.4,0-2.5-1.1-2.5-2.5c0-1.4,1.1-2.5,2.4-2.5c0,0,0,0,0,0h0.1c1.4,0,2.5,1.1,2.5,2.5 S62.9,121,61.5,121z M51.7,121c-1.4,0-2.5-1.1-2.5-2.5c0-1.4,1.1-2.5,2.4-2.5c0,0,0,0,0,0h0.1c1.4,0,2.5,1.1,2.5,2.5 S53.1,121,51.7,121z M41.8,121c-1.4,0-2.5-1.1-2.5-2.5c0-1.4,1.1-2.5,2.4-2.5c0,0,0,0,0,0h0.1c1.4,0,2.5,1.1,2.5,2.5 S43.2,121,41.8,121z M32,121c-1.4,0-2.5-1.1-2.5-2.5c0-1.4,1.1-2.5,2.4-2.5c0,0,0,0,0,0H32c1.4,0,2.5,1.1,2.5,2.5 S33.4,121,32,121z M22.2,121c-1.4,0-2.5-1.1-2.5-2.5c0-1.4,1.1-2.5,2.4-2.5c0,0,0,0,0,0h0.1c1.4,0,2.5,1.1,2.5,2.5 S23.6,121,22.2,121z M12.3,121c-1.4,0-2.5-1.1-2.5-2.5c0-1.4,1.1-2.5,2.4-2.5c0,0,0,0,0,0h0.1c1.4,0,2.5,1.1,2.5,2.5 S13.7,121,12.3,121z" class="st4"/><path d="M71.3,121c-1.4,0-2.5-1.1-2.5-2.5c0-1.4,1.1-2.5,2.5-2.5c0,0,0,0,0,0h0.1c1.4,0,2.5,1.1,2.5,2.5 S72.7,121,71.3,121z" class="st4"/><path d="M392.9,146.7c-3.1,0-5.5-2.5-5.5-5.5c0-3.1,2.5-5.5,5.5-5.5c3.1,0,5.5,2.5,5.5,5.5S395.9,146.7,392.9,146.7 L392.9,146.7z M392.9,138.3c-1.6,0-2.9,1.3-2.9,2.9s1.3,2.9,2.9,2.9c1.6,0,2.9-1.3,2.9-2.9S394.5,138.3,392.9,138.3L392.9,138.3z" class="st5"/><path d="M269.2,14.2c-3.1,0-5.5-2.5-5.5-5.5c0-3.1,2.5-5.5,5.5-5.5c3.1,0,5.5,2.5,5.5,5.5S272.2,14.2,269.2,14.2 L269.2,14.2z M269.2,5.8c-1.6,0-2.9,1.3-2.9,2.9s1.3,2.9,2.9,2.9s2.9-1.3,2.9-2.9C272.1,7.1,270.8,5.8,269.2,5.8L269.2,5.8z" class="st5"/><path d="M191.5,32.2c-3.1,0-5.5-2.5-5.6-5.5c0-3.1,2.5-5.5,5.5-5.6c3.1,0,5.5,2.5,5.6,5.5c0,0,0,0,0,0 C197,29.7,194.5,32.2,191.5,32.2z M191.5,23.8c-1.6,0-2.9,1.3-2.9,2.9c0,1.6,1.3,2.9,2.9,2.9c1.6,0,2.9-1.3,2.9-2.9 C194.4,25.1,193.1,23.8,191.5,23.8L191.5,23.8z" class="st5"/><path d="M78.3,49.1c-3.1,0-5.5-2.5-5.5-5.5c0-3.1,2.5-5.5,5.5-5.5c3.1,0,5.5,2.5,5.5,5.5c0,0,0,0,0,0 C83.8,46.6,81.4,49.1,78.3,49.1z M78.3,40.7c-1.6,0-2.9,1.3-2.9,2.9c0,1.6,1.3,2.9,2.9,2.9c1.6,0,2.9-1.3,2.9-2.9c0,0,0,0,0,0 C81.2,42,79.9,40.7,78.3,40.7z" class="st5"/><path d="M20.2,248.6c-3.1,0-5.5-2.5-5.5-5.5c0-3.1,2.5-5.5,5.5-5.5c3.1,0,5.5,2.5,5.5,5.5 C25.8,246.1,23.3,248.6,20.2,248.6C20.2,248.6,20.2,248.6,20.2,248.6z M20.2,240.1c-1.6,0-2.9,1.3-2.9,2.9c0,1.6,1.3,2.9,2.9,2.9 c1.6,0,2.9-1.3,2.9-2.9c0,0,0,0,0,0C23.1,241.4,21.8,240.1,20.2,240.1z" class="st5"/><path d="M94.1,306.8c-3.1,0-5.5-2.5-5.5-5.5s2.5-5.5,5.5-5.5s5.5,2.5,5.5,5.5C99.6,304.3,97.1,306.8,94.1,306.8z M94.1,298.3c-1.6,0-2.9,1.3-2.8,2.9c0,1.6,1.3,2.9,2.9,2.8c1.6,0,2.8-1.3,2.8-2.9C97,299.6,95.7,298.3,94.1,298.3 C94.1,298.3,94.1,298.3,94.1,298.3z" class="st5"/><path d="M379.8,228.8c-3.1,0-5.5-2.5-5.5-5.5c0-3.1,2.5-5.5,5.5-5.5c3.1,0,5.5,2.5,5.5,5.5 C385.4,226.3,382.9,228.8,379.8,228.8z M379.8,220.4c-1.6,0-2.9,1.3-2.9,2.9s1.3,2.9,2.9,2.9c1.6,0,2.9-1.3,2.9-2.9 C382.7,221.7,381.4,220.4,379.8,220.4z" class="st5"/><path d="M139.6,182.7c-3.1,0-5.5-2.5-5.5-5.5s2.5-5.5,5.5-5.5s5.5,2.5,5.5,5.5v0 C145.2,180.2,142.7,182.7,139.6,182.7z M139.6,174.3c-1.6,0-2.9,1.3-2.9,2.9c0,1.6,1.3,2.9,2.9,2.9c1.6,0,2.9-1.3,2.9-2.9 S141.2,174.3,139.6,174.3C139.6,174.3,139.6,174.3,139.6,174.3z" class="st5"/><path d="M69.9,140.4c-3.1,0-5.5-2.5-5.5-5.5c0-3.1,2.5-5.5,5.5-5.6s5.5,2.5,5.5,5.5c0,0,0,0,0,0 C75.4,137.9,73,140.3,69.9,140.4z M69.9,131.9c-1.6,0-2.9,1.3-2.9,2.9c0,1.6,1.3,2.9,2.9,2.9c1.6,0,2.9-1.3,2.9-2.9c0,0,0,0,0,0 C72.8,133.2,71.5,131.9,69.9,131.9L69.9,131.9z" class="st5"/><path d="M136.3,17.9h-2v-2c0-0.7-0.6-1.3-1.3-1.3s-1.3,0.6-1.3,1.3v2h-2c-0.7,0-1.3,0.6-1.3,1.3s0.6,1.3,1.3,1.3 c0,0,0,0,0,0h2v2c0,0.7,0.6,1.3,1.3,1.3s1.3-0.6,1.3-1.3v-2h2c0.7,0,1.3-0.6,1.3-1.3C137.7,18.5,137.1,17.9,136.3,17.9z" class="st5"/><path d="M12.8,175.1h-2v-2c0-0.7-0.6-1.3-1.3-1.3c-0.7,0-1.3,0.6-1.3,1.3v2h-2c-0.7,0-1.3,0.6-1.3,1.3 s0.6,1.3,1.3,1.3h2v2c0,0.7,0.6,1.3,1.3,1.3c0.7,0,1.3-0.6,1.3-1.3c0,0,0,0,0,0v-2h2c0.7,0,1.3-0.6,1.3-1.3 S13.6,175.1,12.8,175.1L12.8,175.1z" class="st5"/><path d="M330.3,300.2h-2v-2c0-0.7-0.6-1.3-1.3-1.3c-0.7,0-1.3,0.6-1.3,1.3v2h-2c-0.7,0-1.3,0.6-1.3,1.3 c0,0.7,0.6,1.3,1.3,1.3h2v2c0,0.7,0.6,1.3,1.3,1.3c0.7,0,1.3-0.6,1.3-1.3v-2h2c0.7,0,1.3-0.6,1.3-1.3 C331.6,300.8,331,300.2,330.3,300.2z" class="st5"/><path d="M275.8,184.5h-2v-2c0-0.7-0.6-1.3-1.3-1.3c-0.7,0-1.3,0.6-1.3,1.3v2h-2c-0.7,0-1.3,0.6-1.3,1.3 s0.6,1.3,1.3,1.3h2v2c0,0.7,0.6,1.3,1.3,1.3c0.7,0,1.3-0.6,1.3-1.3l0,0v-2h2c0.7,0,1.3-0.6,1.3-1.3S276.6,184.5,275.8,184.5 L275.8,184.5z" class="st5"/><path d="M75.3,190.4h-2v-2c0-0.7-0.6-1.3-1.3-1.3s-1.3,0.6-1.3,1.3v2h-2c-0.7,0-1.3,0.6-1.3,1.3s0.6,1.3,1.3,1.3h2v2 c0,0.7,0.6,1.3,1.3,1.3s1.3-0.6,1.3-1.3l0,0v-2h2c0.7,0,1.3-0.6,1.3-1.3S76,190.4,75.3,190.4z" class="st5"/><path d="M25.5,78.3h-2v-2c0-0.7-0.6-1.3-1.3-1.3c-0.7,0-1.3,0.6-1.3,1.3v2h-2c-0.7,0-1.3,0.6-1.3,1.3 s0.6,1.3,1.3,1.3h2v2c0,0.7,0.6,1.3,1.3,1.3c0.7,0,1.3-0.6,1.3-1.3v-2h2c0.7,0,1.3-0.6,1.3-1.3S26.3,78.3,25.5,78.3z" class="st5"/><path d="M238.7,42.1h-2v-2c0-0.7-0.6-1.3-1.3-1.3s-1.3,0.6-1.3,1.3v2h-2c-0.7,0-1.3,0.6-1.3,1.3 c0,0.7,0.6,1.3,1.3,1.3c0,0,0,0,0,0h2v2c0,0.7,0.6,1.3,1.3,1.3s1.3-0.6,1.3-1.3v-2h2c0.7,0,1.3-0.6,1.3-1.3 C240,42.7,239.4,42.1,238.7,42.1C238.7,42.1,238.7,42.1,238.7,42.1z" class="st5"/><path d="M300.6,91.5h-2v-2c0-0.7-0.6-1.3-1.3-1.3c-0.7,0-1.3,0.6-1.3,1.3v2h-2c-0.7,0-1.3,0.6-1.3,1.3 s0.6,1.3,1.3,1.3h2v2c0,0.7,0.6,1.3,1.3,1.3c0.7,0,1.3-0.6,1.3-1.3l0,0v-2h2c0.7,0,1.3-0.6,1.3-1.3S301.4,91.5,300.6,91.5z" class="st5"/><path d="M384.5,44.8h-2v-2c0-0.7-0.6-1.3-1.3-1.3c-0.7,0-1.3,0.6-1.3,1.3v2h-2c-0.7,0-1.3,0.6-1.3,1.3 c0,0.7,0.6,1.3,1.3,1.3c0,0,0,0,0,0h2v2c0,0.7,0.6,1.3,1.3,1.3c0.7,0,1.3-0.6,1.3-1.3l0,0v-2h2c0.7,0,1.3-0.6,1.3-1.3 C385.8,45.4,385.2,44.9,384.5,44.8z" class="st5"/><path d="M169.4,204c-44.1,37-69-13.2-59.1-39.2c0,0,12.8,7.4,13.4-1.3s-8.1-2.5-11.8-5.8s-2.3-7.8,1.1-8.9 s5,0,5.7,4.3c0.6,3.9,6.7,4.3,8,1.1s0.5-13.9-15.1-14.4c-0.4-2.2,4.5-20.7-4-20.6c-6.8,0.1-4.1,14.9-4,19 c-2.4-7-2.7-18.6-9.8-15.1s4.1,19.3,4.1,19.3s-7.6-12.9-12.2-6.9c-3.3,4.3,0.9,8.3,6.8,12.6c4.6,3.4,1.9,13.1,1.2,16.8 c-2.2,11.7-9,57.6,26.8,72.3c18.7,7.7,38.1,1.3,38.1,1.3L169.4,204z" class="st6"/><path d="M169.4,204l-10.7,34.5c0,0-19.4,6.3-38.1-1.3c-29.6-12.1-30.1-45.5-28.2-63.4c-0.3,18.4,4.2,43.2,28.8,53.3 c18.7,7.7,38.1,1.3,38.1,1.3l6.7-21.7C167.2,205.8,168.3,204.9,169.4,204z" class="st7"/><path d="M233.8,204c44.1,37,69-13.2,59.1-39.2c0,0-12.9,7.4-13.5-1.3s8.1-2.5,11.8-5.8s2.3-7.8-1.1-8.9s-5,0-5.6,4.3 c-0.6,3.9-6.7,4.3-8,1.1s-0.5-13.9,15.1-14.4c0.5-2.2-4.5-20.7,4-20.6c6.8,0.1,4.1,14.9,4,19c2.4-7,2.7-18.6,9.8-15.1 s-4.1,19.3-4.1,19.3s7.6-12.9,12.2-6.9c3.3,4.3-0.9,8.3-6.9,12.6c-4.6,3.4-1.9,13.1-1.2,16.8c2.2,11.7,9,57.6-26.8,72.3 c-18.7,7.7-38.1,1.3-38.1,1.3L233.8,204z" class="st6"/><path d="M233.9,204l10.7,34.5c0,0,19.4,6.3,38.1-1.3c29.6-12.1,30.1-45.5,28.2-63.4c0.3,18.4-4.2,43.2-28.8,53.3 c-18.7,7.7-38.1,1.3-38.1,1.3l-6.7-21.7C236.1,205.8,235,204.9,233.9,204z" class="st7"/><path d="M255.4,211.7c-5.2-0.7-19.3-6.9-24.6-10.2c-13.1-10.4-43.8-11.1-57.1-1c-1.2,0.9-20.9,11.7-26.2,11.2 c-4.3-0.4-5.6,35.1,0,36.7c2,0.6,4,0.9,5.6,1.2c-0.7,23.3-1.4,59.3,2.8,64c5,5.7,86.6,5.7,91.6,0c4.2-4.7,3.4-40.8,2.6-64 c1.6-0.3,3.5-0.7,5.4-1.2C261,246.9,259.6,212.3,255.4,211.7z" class="st8"/><path d="M211.2,187.4h-19.3c0,11.8-1.1,17.7,9.6,17.7S211.2,199.2,211.2,187.4z" class="st7"/><path d="M307.8,329c-4.6-18.8-35.6-24.3-52.3-24H150.4c-16.7-0.3-47.7,5.2-52.3,24c-4.5,18.6,0.8,54,104.8,33.9 C307,383,312.3,347.6,307.8,329z" class="st9"/><path d="M307.8,328.6c5.3,19-0.9,55.3-108.3,33.5c0,0,3.2-20.5-1.7-34.5C260.2,305.3,303.5,313.5,307.8,328.6z" class="st10"/><path d="M199.4,362.2c0,0,0.3-2.2,0.6-5.6c96.4,19.1,109.9-9.2,107.4-28.7c0.1,0.2,0.2,0.5,0.2,0.7 C313.1,347.7,306.9,383.9,199.4,362.2z" class="st9"/><path d="M242.3,368.8c-3.7,0.3-7.3,0.2-11-0.2c-15.6-1.5-35.4-6.9-35.4-6.9l10.9-28.8c0,0,15.1-0.6,27.2-0.5 c6,0,11.3,0.3,13.7,0.9C258.1,335.8,258.5,367.3,242.3,368.8z" class="st3"/><path d="M206.5,340.8c0.4,0,24.4,0.8,23.7,1.1s-1.6,15.3-1.6,15.3s-24.3-3.4-24-3.8S206.5,340.8,206.5,340.8z" class="st11"/><path d="M242.3,368.8c-3.7,0.3-7.3,0.2-11-0.2c-3.3-4.8-5-11.9-4.2-19.5c0.5-6.2,2.9-12,6.9-16.8 c6,0,11.3,0.3,13.7,0.9C258.1,335.8,258.5,367.3,242.3,368.8z" class="st1"/><path d="M242.3,368.8c-2.1,0.2-4.2,0.2-6.3,0.2l1.2-0.1c16.3-1.6,15.9-33,5.4-35.6c-2.9-0.6-5.8-0.9-8.7-0.9 c4.8,0,10.5,0.1,13.7,0.9C258.1,335.8,258.5,367.3,242.3,368.8z" class="st12"/><path d="M226.1,360.1c-0.7,0-1.3-0.4-1.4-1.1c-1.2-4.4-0.5-9.9,0.4-14c-1.8,3.1-3.4,7.8-2.9,12.3 c0.1,0.8-0.5,1.6-1.3,1.7c-0.8,0.1-1.6-0.5-1.7-1.3c0,0,0,0,0,0c-1-8.1,4.4-18.6,8.6-19.4c0.8-0.1,1.6,0.4,1.7,1.2 c0,0.3,0,0.5-0.1,0.8c0,0.1-3.9,11-2,17.9c0.2,0.8-0.2,1.6-1,1.9C226.3,360.1,226.2,360.1,226.1,360.1z" class="st12"/><path d="M214.6,358.4c-0.8,0-1.4-0.6-1.5-1.3c-1-8.1,4.4-18.6,8.6-19.4c0.8-0.2,1.6,0.3,1.8,1.1 c0.2,0.8-0.3,1.6-1.1,1.8c-0.1,0-0.1,0-0.2,0c-1.8,0.3-7.1,8.5-6.2,16c0.1,0.8-0.5,1.6-1.3,1.7c0,0,0,0,0,0L214.6,358.4z" class="st12"/><path d="M208.5,357.7c-0.8,0-1.4-0.6-1.5-1.3c-1-8.1,4.4-18.6,8.6-19.4c0.8-0.1,1.6,0.4,1.8,1.2 c0.1,0.8-0.4,1.6-1.2,1.8c-1.8,0.3-7.1,8.5-6.2,16c0.1,0.8-0.5,1.6-1.3,1.7c0,0,0,0,0,0L208.5,357.7z" class="st12"/><path d="M226.1,359.6c-0.2,0-0.4,0-0.6-0.1c-4-1.6-7-13-4.4-20.7c0.3-0.8,1.1-1.2,1.9-0.9c0,0,0,0,0,0 c0.8,0.3,1.2,1.1,0.9,1.9c-2.5,7.2,1,16.3,2.7,17c0.8,0.3,1.1,1.2,0.8,2C227.3,359.2,226.7,359.6,226.1,359.6z" class="st1"/><path d="M220,359c-0.2,0-0.4,0-0.6-0.1c-4-1.6-7-13-4.4-20.7c0.3-0.8,1.1-1.2,1.9-0.9c0.8,0.3,1.2,1.1,0.9,1.9l0,0 c-2.5,7.2,1,16.3,2.7,17c0.7,0.4,1,1.3,0.7,2C221,358.6,220.5,359,220,359z" class="st1"/><path d="M214,358.3c-0.2,0-0.4,0-0.6-0.1c-4-1.6-7-13-4.4-20.7c0.3-0.8,1.1-1.2,1.9-0.9c0.8,0.3,1.2,1.1,0.9,1.9l0,0 c-2.5,7.2,1,16.3,2.7,17c0.8,0.3,1.1,1.2,0.8,2C215.2,358,214.6,358.4,214,358.3L214,358.3z" class="st1"/><path d="M252.1,317.9c-5.1,4.1-95.4,4.8-101.2,0s-12.3-76.7-8.8-80.2s114-3.1,118.8,0S257.2,313.7,252.1,317.9z" class="st13"/><path d="M256.4,303.5c-1.5,7.7-3,13.3-4.3,14.4c-5.1,4.1-95.4,4.8-101.2,0s-12.3-76.7-8.8-80.2 c0.5-0.5,5.6,46.8,20.4,59.6C188.4,319.7,238.1,314.1,256.4,303.5z" class="st14"/><ellipse cx="201.3" cy="276.4" class="st1" rx="14.8" ry="14.8" transform="matrix(0.1498 -0.9887 0.9887 0.1498 -102.1278 434.0645)"/><path d="M199.8,260.9c0,0-5.7-9.4-8.8-3.3C189.5,260.9,199.8,260.9,199.8,260.9z" class="st1"/><path d="M202.9,260.9c0,0,5.7-9.4,8.8-3.3C213.3,260.9,202.9,260.9,202.9,260.9z" class="st1"/><path d="M133.4,312.9c23.2,1.5,61,14.3,75.8,18.1c-2.2,3.5-5.6,31.5-4.1,33c-108.3,22-111.7-17.6-107-35.8 C99.6,322.5,108.9,311.3,133.4,312.9z" class="st15"/><path d="M205.1,364c-100.6,20.4-110.6-12.4-107.9-31.6c2.9,18.3,23.6,38.5,107.9,21.4V364z" class="st10"/><path d="M248.9,141c-0.1,0.1-0.3,0.2-0.5,0.2c-1.4,0.3-2.9,0.5-4.4,0.6l-1.6,0.1h-0.2L241,142h-1h-1.9 c-18.4,0.4-55-1.1-72.3-1.9h-0.9l-2.5-0.1l-1.2-0.1l-4.8-0.2c-0.6-0.6-1.1-1.3-1.6-2.1c-3.4-4.8-7.4-13.4-5.1-15.2 c2.6-2.1,6.6-0.5,6.7-1.7s-6.3-10.5-3.7-13.4s2.6-0.3,3.7-1.4c0.6-0.6-1.2-5-1.6-9.4c-0.1-0.6-0.1-1.2-0.1-1.8 c0-2.6,0.8-5,2.9-6.4c1.1-0.7,2.1-1.5,2.9-2.5c1.7-2.2-0.4-2.8,2.5-4.4c3.7-2.1,8.6,1,8.6,1s6.7-12.6,10.2-13.1s3.1,4.7,6,4 s7.2-6.7,10.9-7.9c5.2-1.7-1.5,5.5,1,5.5s8.1-6.9,16.2-8.1c2.8,2.4-1.2,6.4,5.2,7.4s3.4,6.6,7.6,8.4s3.6,0.5,7.8,1.9 s2.6,2.8,3.8,7.2s0.1,5.3,4.6,7.8s9,4.3,6.7,9.7s-2.7,9.1,0,8.1s3.2-1.2,2.5,1.9s-5.9,10.3-1.6,10.3S252.8,138,248.9,141z" class="st16"/><path d="M248.9,141c-0.1,0.1-0.3,0.2-0.5,0.2c-1.4,0.3-2.9,0.5-4.4,0.6l-1.6,0.1h-0.2L241,142h-1h-1.9 c-18.4,0.4-55-1.1-72.3-1.9h-0.9l-2.5-0.1l-1.2-0.1l-4.8-0.2c-0.6-0.6-1.1-1.3-1.6-2.1c-3.4-4.8-7.4-13.4-5.1-15.2 c2.6-2.1,6.6-0.5,6.7-1.7s-6.3-10.5-3.7-13.4s2.6-0.3,3.7-1.4c0.6-0.6-1.2-5-1.6-9.4c-0.1-0.6-0.1-1.2-0.1-1.8 c0-2.6,0.8-5,2.9-6.4c1.1-0.7,2.1-1.5,2.9-2.5c1.7-2.2-0.4-2.8,2.5-4.4c3.7-2.1,8.6,1,8.6,1s6.7-12.6,10.2-13.1s3.1,4.7,6,4 s7.2-6.7,10.9-7.9c5.2-1.7-1.5,5.5,1,5.5s8.1-6.9,16.2-8.1c2.8,2.4-1.2,6.4,5.2,7.4s3.4,6.6,7.6,8.4s3.6,0.5,7.8,1.9 s2.6,2.8,3.8,7.2s0.1,5.3,4.6,7.8s9,4.3,6.7,9.7s-2.7,9.1,0,8.1s3.2-1.2,2.5,1.9s-5.9,10.3-1.6,10.3S252.8,138,248.9,141z" class="st16"/><path d="M245.7,138.8v1c-0.1,1-0.7,1.8-1.6,2.1c-0.5,0.2-1.1,0.2-1.6,0.1h-0.1c0,0-0.1,0-0.1,0 c-0.4,0.1-0.8,0.1-1.3,0c-0.4-0.1-0.7-0.2-1-0.4c-0.3-0.3-0.6-0.6-0.7-1c-0.1-0.3-0.1-0.6-0.1-0.9c0.2-3.7-0.2-7.5-1.2-11.1 c-0.3-1.2,0.4-2.5,1.6-2.8c0.1,0,0.2,0,0.3-0.1c0,0,0.1,0,0.1,0c-0.2-0.8-0.4-1.6-0.7-2.4l0,0c-0.4-1.3-0.9-2.6-1.5-3.9l-0.2-0.4 l-0.2-0.4v-0.1c-0.1-0.1-0.1-0.2-0.2-0.3c-0.1-0.2-0.2-0.4-0.4-0.7c-0.5-0.9-1.1-1.7-1.8-2.4c-0.1-0.1-0.1-0.1-0.2-0.2 c-3.3-3.8-7.9-6.2-12.7-8.1c-11.6-4.6-25.1-4.3-37.3-1.4c0.5,1.7-0.5,3.5-2.2,3.9c-0.1,0-0.2,0-0.3,0.1c-6.2,2.1-10.9,5.3-16,8.9 l0,0l-2,1.4c0,2.2-0.2,4.3-0.6,6.4c0,0.2-0.1,0.4-0.1,0.6c0.8,1.9,1.4,3.9,1.9,6l0.1,0.1c0.4,0.4,0.6,0.9,0.9,1.4 c0.7,1.7,0.5,3.6-0.6,5l0,0c-0.3,0.4-0.5,0.7-0.9,1l-0.1,0.1c-0.3,0.6-0.8,1.2-1.3,1.6c-0.6,0.6-1.4,1.1-2.2,1.4 c-0.2,0.1-0.5,0.2-0.7,0.2c-0.1,0-0.3,0.1-0.4,0.1c-1.8,0.4-3.7,0.1-5.3-0.7c-1.1-0.6-2-1.3-2.9-2.2c0.4-0.9,1-1.7,1.8-2.4 c0.3-0.2,0.6-0.4,0.9-0.6c-3.4-4.8-7.4-13.4-5.1-15.2c2.6-2.1,6.6-0.5,6.7-1.7s-6.3-10.5-3.7-13.4s2.6-0.3,3.7-1.4 c0.6-0.6-1.2-5-1.6-9.4h0.1c-0.1-0.6-0.1-1.2-0.1-1.8c0-2.6,0.8-5,2.9-6.4c1.1-0.7,2.1-1.5,2.9-2.5c0.4,0.1,0.6,0.5,0.6,0.9 c0,0,0,0,0,0c-1.2,3.5-2.6,6.2-1.2,9.9c0.8-0.9,1.7-1.9,2.7-2.7c2-1.8,4.9,0.8,3.5,2.8c0.7,0,1.5,0.1,2.2,0.3 c1.5-3.5,3.3-6.8,7.1-8.5c1.4-0.6,3.4,0.4,2.9,2.2c-0.1,0.4-0.3,1-0.5,1.5c0.4-0.6,0.6-1.1,0.8-1.4c1.4-1.8,3.8-2.4,5.9-1.5 c2-1.9,4.1-3.9,6.2-5.7c3.5-3,6.9-5.1,11.6-4.4c3,0.4,3.1,4.8,0.8,6.2c-0.8,0.5-1.5,1-2.2,1.5c-0.8,0.6-1.5,1.3-2.2,2.1l0,0 c-0.2,0.3-1.7,2.2-2.7,3.2c0.1,0.1,0.1,0.1,0.2,0.2c2.7-0.7,5.3-1.6,7.8-2.8c3.3-1.5,6.9-2.3,10.5-2.4c2.2,0.1,3.9,2,3.8,4.2 c0,0.2,0,0.3,0,0.5c3.5,0.1,7.1,0.2,10.6,0c1.2,0,2.1,1,2.1,2.2c0,0.2,0,0.3-0.1,0.5c-0.1,0.8-0.3,1.5-0.6,2.2 c1-0.1,1.9-0.2,2.9-0.2c0.5,0.1,0.9,0.6,0.9,1.1c0,0.4-0.3,0.7-0.6,0.8c-2,0.7-4,1.2-6,1.7c-0.8,0.2-1.6-0.3-1.8-1.1 c-0.1-0.3,0-0.7,0.1-1c-1.4,0.5-2.9,0.8-4.4,0.8c2.2,0.7,4.4,1.5,6.5,2.5C241.1,108.3,246,124.7,245.7,138.8z" class="st17"/><path d="M164,162.3c-0.2,0-0.4,0-0.6,0c-12.3-0.7-14.8-15-11.5-21.6c0.4-0.9,1-1.7,1.8-2.4c0.3-0.2,0.6-0.4,0.9-0.6 c2.6-1.6,4.8-0.5,6.4,1c0.4,0.4,0.8,0.9,1.2,1.4c0.4,0.6,0.8,1.2,1.2,1.8l0.1,0.3L164,162.3z" class="st7"/><path d="M158.3,149.5c0-0.3,0.1-0.5,0.1-0.8c0.5-1.7,1.3-3.3,2.3-4.7c0.1-0.2,0.1-0.4-0.1-0.6 c-0.1-0.1-0.3-0.1-0.4,0c-3,1.8-5.7,5.8-4.4,9.5c1,2.8,5.6,4.7,7.1,1.3C164.1,151.6,161.2,147.7,158.3,149.5z" class="st18"/><path d="M237.4,163.7L237.4,163.7h-0.6V163l0.4-19.5c0.3-0.5,0.5-1,0.9-1.4c0.5-0.8,1.2-1.6,1.9-2.2 c1.7-1.5,4.2-2.5,7.1-0.2c0.5,0.4,1,1,1.4,1.6C252.4,147.5,250.2,163,237.4,163.7z" class="st7"/><path d="M242.5,150.9c0-0.3-0.1-0.5-0.1-0.8c-0.5-1.7-1.3-3.3-2.3-4.7c-0.1-0.2,0-0.4,0.1-0.5 c0.1-0.1,0.3-0.1,0.4,0c3.1,1.8,5.7,5.8,4.4,9.5c-1,2.8-5.6,4.7-7.1,1.3C236.8,153,239.6,149.1,242.5,150.9z" class="st18"/><path d="M240.1,129.4c0,3.6,0,7.1-0.1,10.4c0,0.7-0.1,1.5-0.1,2.2c-0.1,3.1-0.3,6.1-0.6,9c-0.2,2-0.4,3.9-0.7,5.7 c-0.4,2.4-0.8,4.7-1.3,6.9c0,0,0,0.1,0,0.1c-1.5,6.3-3.8,11.4-7.2,15.4c-5.9,7-15.2,10.5-29.6,10.5c-14.6,0-23.9-3.6-29.8-10.8 c-3-3.8-5.1-8.2-6.3-12.9c-0.3-1.2-0.7-2.4-0.9-3.7c-0.5-2.2-0.9-4.6-1.2-7c-0.2-1.8-0.4-3.6-0.6-5.5c-0.3-3.1-0.4-6.3-0.6-9.8 c0-0.4,0-0.9,0-1.3c-0.1-3-0.1-6-0.1-9.2C160.9,92.7,240.1,92.7,240.1,129.4z" class="st6"/><path d="M231.3,177.7c-0.4,0.5-0.8,1-1.2,1.5c-5.9,7-15.2,10.5-29.6,10.5c-14.6,0-23.9-3.6-29.8-10.8 c-3-3.8-5.1-8.2-6.3-12.8c-0.3-1.2-0.7-2.4-0.9-3.7c-0.5-2.2-0.9-4.6-1.2-7c-0.2-1.8-0.4-3.6-0.6-5.5c-0.3-3.1-0.4-6.3-0.6-9.8 c0-0.4,0-0.9,0-1.3c-0.1-3-0.1-6-0.1-9.2c0-7,3.2-13.7,8.7-18c-2.8,3.9-4.3,8.5-4.3,13.3c0,3.2,0,6.3,0.1,9.2c0,0.4,0,0.9,0,1.3 c0.1,3.4,0.3,6.7,0.6,9.8c0.2,1.9,0.4,3.8,0.6,5.5c0.3,2.5,0.7,4.8,1.2,7.1c0.3,1.3,0.6,2.5,0.9,3.7c1.2,4.6,3.4,9,6.3,12.8 c5.9,7.2,15.3,10.9,29.9,10.9C216.9,185,225.4,182.5,231.3,177.7z" class="st7"/><path d="M181.2,156.9c-4.5,0-9.1-3.6-9.1-10.4c0-0.8,0.7-1.5,1.5-1.5s1.5,0.7,1.5,1.5c0,5.1,3.2,7.4,6.1,7.4 s6.1-2.3,6.1-7.4c0-0.8,0.7-1.5,1.5-1.5s1.5,0.7,1.5,1.5C190.3,153.4,185.8,156.9,181.2,156.9z" class="st16"/><path d="M221.4,156.9c-4.5,0-9.1-3.6-9.1-10.4c0-0.8,0.7-1.5,1.5-1.5s1.5,0.7,1.5,1.5c0,5.1,3.2,7.4,6.1,7.4 s6.1-2.3,6.1-7.4c0-0.8,0.7-1.5,1.5-1.5s1.5,0.7,1.5,1.5C230.5,153.4,225.9,156.9,221.4,156.9z" class="st16"/><path d="M185.2,126.9c-0.5,0-1-0.3-1.3-0.7c-1-1.6-2-2.4-2.7-2.4s-1.7,0.9-2.7,2.4c-0.4,0.7-1.3,1-2,0.6 s-1-1.3-0.6-2c0-0.1,0.1-0.1,0.1-0.2c1.6-2.6,3.4-3.8,5.3-3.8s3.6,1.3,5.3,3.8c0.4,0.7,0.2,1.6-0.5,2.1c0,0,0,0,0,0 C185.8,126.8,185.5,126.9,185.2,126.9z" class="st16"/><path d="M225.4,126.9c-0.5,0-1-0.3-1.3-0.7c-1-1.6-2-2.4-2.7-2.4s-1.7,0.9-2.7,2.4c-0.4,0.7-1.4,0.9-2.1,0.5 c-0.7-0.4-0.9-1.4-0.5-2.1l0,0c1.6-2.6,3.4-3.8,5.3-3.8s3.6,1.3,5.3,3.8c0.4,0.7,0.3,1.6-0.4,2.1 C225.9,126.8,225.7,126.9,225.4,126.9z" class="st16"/><path d="M201.8,167.1h0.5c1.3,0,2.4,1.1,2.4,2.4v4.4c0,1.3-1.1,2.4-2.4,2.4h-0.5c-1.3,0-2.4-1.1-2.4-2.4v-4.4 C199.4,168.2,200.5,167.1,201.8,167.1z" class="st16"/><g class="st19"><path d="M182.6,169.6c0,5.3-4.2,9.5-9.5,9.5c-0.8,0-1.7-0.1-2.5-0.3c-2.9-3.8-5.1-8.2-6.3-12.8 c2-4.9,7.5-7.2,12.4-5.2C180.3,162.3,182.6,165.7,182.6,169.6L182.6,169.6z" class="st20"/><path d="M237.4,163.7L237.4,163.7c-1.6,6.3-3.9,11.4-7.3,15.4H230c-5.3,0-9.5-4.2-9.5-9.5c0-5.3,4.2-9.5,9.5-9.5 c2.6,0,5.1,1,6.9,2.9C237,163.2,237.2,163.4,237.4,163.7C237.4,163.6,237.4,163.6,237.4,163.7z" class="st20"/></g></g></g></g></svg>