<?xml version="1.0" encoding="utf-8"?>
<!-- Generator: Adobe Illustrator 24.1.0, SVG Export Plug-In . SVG Version: 6.00 Build 0)  -->
<svg version="1.1" id="Layer_1" xmlns="http://www.w3.org/2000/svg" xmlns:xlink="http://www.w3.org/1999/xlink" x="0px" y="0px"
	 viewBox="0 0 1000 990" style="enable-background:new 0 0 1000 990;" xml:space="preserve">
<style type="text/css">
	.st0{fill:#FFFFFF;stroke:#000000;stroke-miterlimit:10;}
	.st1{fill:#FFFFFF;filter:url(#Adobe_OpacityMaskFilter);}
	.st2{mask:url(#mask_1_);}
	.st3{fill:#85C5E5;}
	.st4{fill:#592D3D;stroke:#592D3D;stroke-width:12;stroke-miterlimit:10;}
	.st5{fill:#CC734C;}
	.st6{fill:#B56241;}
	.st7{fill:none;stroke:#592D3D;stroke-width:12;stroke-miterlimit:10;}
	.st8{fill:none;stroke:#592D3D;stroke-width:12;stroke-linecap:square;stroke-miterlimit:10;}
	.st9{fill:#592D3D;}
	.st10{fill:#FFFFFF;}
	.st11{fill:#E2E2E2;}
	.st12{fill:#FFFFFF;stroke:#592D3D;stroke-width:12;stroke-linecap:square;stroke-miterlimit:10;}
	.st13{fill:none;stroke:#592D3D;stroke-width:6;stroke-linecap:square;stroke-miterlimit:10;}
	.st14{fill:#FFFFFF;stroke:#592D3D;stroke-width:12;stroke-miterlimit:10;}
	.st15{stroke:#FFFFFF;stroke-width:16;}
	.st16{stroke:#FFFFFF;stroke-width:24;}
	.st17{fill:#61DAFB;}
	.st18{fill:none;stroke:#592D3D;stroke-width:8;stroke-miterlimit:10;}
	.st19{fill:#FEDC58;}
	.st20{fill:#EDBF2E;}
	.st21{fill:none;stroke:#592D3D;stroke-width:12;stroke-linecap:round;stroke-miterlimit:10;}
	.st22{fill:#D69AC7;}
	.st23{fill:#C683B4;}
	.st24{fill:#67B7D6;}
	.st25{fill:none;stroke:#67B7D6;stroke-width:8;stroke-miterlimit:10;}
	.st26{opacity:0.2;fill:#FFFFFF;enable-background:new    ;}
	.st27{opacity:0.15;enable-background:new    ;}
	.st28{opacity:0.4;fill:#FFFFFF;enable-background:new    ;}
	.st29{fill:none;stroke:#592D3D;stroke-width:20;stroke-miterlimit:10;}
</style>
<rect class="st0" width="1000" height="990"/>
<defs>
	<filter id="Adobe_OpacityMaskFilter" filterUnits="userSpaceOnUse" x="271.7" y="156.8" width="476.2" height="699.8">
		<feColorMatrix  type="matrix" values="1 0 0 0 0  0 1 0 0 0  0 0 1 0 0  0 0 0 1 0"/>
	</filter>
</defs>
<mask maskUnits="userSpaceOnUse" x="271.7" y="156.8" width="476.2" height="699.8" id="mask_1_">
	<path class="st1" d="M867.9,84.3H151.7v514.5h128.3c27.5,102,119.9,177,229.8,177s202.3-75,229.8-177h128.3V84.3z"/>
</mask>
<g class="st2">
	<circle class="st3" cx="509.8" cy="535.6" r="238.1"/>
	<g transform="scale(1)">
		<path class="st4" d="M313.1,440.9c131.4,55.8,265.8,56.6,398.2,0c12.6-5.4,12.5-100.2,0-95.8c-129.3,45-266,45.5-398.2,0
			C297.4,339.7,298.9,434.9,313.1,440.9z"/>
	</g>
	<path class="st5" d="M588.6,627.7c65,0,51.6,81.8,52.2,172.8h-52.2V627.7z"/>
	<path class="st6" d="M604.9,680.1l-16.3,27.3l8.2,93.1h22.7C620.1,671.4,604.9,680.1,604.9,680.1z"/>
	<path class="st5" d="M318.8,442.4c0-105.5,85.5-191.1,191.1-191.1s191.1,85.5,191.1,191.1c0.1,57.6-25.9,112.1-70.7,148.3
		c-3.9,3.2-8,6.2-12.1,9.1c-43.1,27.4-97.5,27.4-146.7,23c-4.8-0.7-9.5-1.6-14.2-2.7c-18.9-4.2-37.1-10.6-54-19.9
		c-4.2-2.6-8.2-5.3-12.1-8.3c-3.9-3-7.7-6.2-11.3-9.6c-3.4-3.2-6.7-6.5-9.9-9.9C337,537.1,318.7,490.6,318.8,442.4z"/>
	<path class="st6" d="M344.8,538.7c0.5,0.9,1,1.7,1.5,2.6c0.3,0.5,0.6,1,1,1.5c0.5,0.8,0.9,1.5,1.4,2.3c0.3,0.5,0.7,1.1,1,1.6
		c0.5,0.7,0.9,1.4,1.4,2.1c0.4,0.5,0.7,1.1,1.1,1.6c0.5,0.7,0.9,1.4,1.4,2.1c0.4,0.6,0.8,1.1,1.2,1.6c0.4,0.6,1,1.3,1.4,2
		c0.5,0.7,0.8,1.1,1.2,1.6c0.4,0.5,1,1.3,1.5,1.9c0.5,0.6,0.9,1.1,1.3,1.6c0.4,0.5,1,1.3,1.5,1.9c0.5,0.6,0.9,1.1,1.3,1.6
		c0.4,0.5,1,1.2,1.6,1.8c0.5,0.6,0.9,1.1,1.4,1.6l1.6,1.8c0.5,0.5,0.9,1,1.4,1.5c0.6,0.7,1.2,1.3,1.9,2l0.9,0.9
		c0.9,1,1.9,1.9,2.8,2.9l0.2,0.2c0.9,0.9,1.9,1.8,2.8,2.7l1.1,1.1c0.7,0.6,1.4,1.3,2,1.9l0.8,0.8c0.7,0.7,1.5,1.3,2.2,2
		c2.3,2,4.7,4,7.2,5.9c3.9,3,8,5.8,12.1,8.3c16.9,9.3,35.1,15.8,54,19.9c4.7,1,9.5,1.9,14.2,2.7c30.2,2.7,62.3,3.7,92.6-2.2
		c-48.2-14.2-279.4-97.4-133.8-351.9l0,0c-1.9,0.9-3.9,1.8-5.8,2.8l-0.4,0.2c-0.9,0.4-1.7,0.9-2.6,1.3l-0.7,0.4
		c-2.7,1.4-5.4,2.9-8,4.5l-0.6,0.4c-0.8,0.5-1.7,1-2.5,1.5l-0.6,0.4c-2.6,1.6-5.1,3.3-7.6,5l-0.8,0.5c-0.8,0.5-1.5,1.1-2.3,1.6
		l-0.5,0.3c-1.6,1.1-3.1,2.3-4.6,3.5l-0.4,0.3c-0.7,0.6-1.4,1.1-2.1,1.7l-0.8,0.7c-0.7,0.6-1.4,1.2-2.1,1.8l0,0
		c-1.5,1.3-3,2.5-4.5,3.8l-0.8,0.7l-1.9,1.8l-0.9,0.8c-2,1.9-4,3.9-6,5.9l-1,1c-0.6,0.6-1.1,1.2-1.7,1.8c-0.3,0.4-0.7,0.7-1,1.1
		c-1,1.1-2,2.1-2.9,3.2c-0.3,0.4-0.7,0.7-1,1.1c-0.5,0.6-1,1.2-1.5,1.8l-1.1,1.3c-0.5,0.6-1,1.2-1.4,1.7c-0.4,0.5-0.8,1-1.2,1.4
		c-0.8,1-1.5,1.9-2.3,2.9c-0.4,0.5-0.8,1-1.2,1.5c-0.4,0.5-0.9,1.1-1.3,1.7c-0.4,0.6-0.8,1-1.1,1.6c-0.4,0.5-0.8,1.1-1.2,1.7
		c-0.7,1-1.3,1.9-2,2.9c-0.4,0.5-0.7,1.1-1.1,1.6c-0.4,0.5-0.8,1.2-1.2,1.8l-1.1,1.7l-1.2,1.9c-0.3,0.5-0.6,1-0.9,1.5
		c-0.6,1-1.3,2.1-1.9,3.2l-0.9,1.5c-0.4,0.7-0.8,1.4-1.2,2.1c-0.3,0.5-0.6,1-0.9,1.6c-0.5,0.9-0.9,1.7-1.4,2.6l-0.9,1.7
		c-0.5,0.9-0.9,1.8-1.4,2.8c-0.2,0.5-0.5,1-0.7,1.5c-0.4,0.8-0.7,1.6-1.1,2.4c-0.2,0.5-0.4,0.9-0.7,1.4c-0.5,1.2-1,2.4-1.6,3.6
		c-0.2,0.4-0.3,0.8-0.5,1.1c-0.4,0.9-0.8,1.8-1.1,2.7c-0.2,0.5-0.4,1-0.6,1.4c-0.4,0.9-0.7,1.8-1,2.7c-0.2,0.4-0.3,0.8-0.4,1.2
		c-0.4,1.3-0.9,2.5-1.3,3.8l-0.4,1.2c-0.3,1-0.6,1.9-0.9,2.9l-0.4,1.4c-0.3,1.1-0.7,2.2-1,3.3c-0.1,0.2-0.1,0.5-0.2,0.7
		c-0.4,1.3-0.7,2.6-1.1,4c-0.1,0.4-0.2,0.9-0.3,1.3c-0.3,1-0.5,2-0.7,3l-0.3,1.3c-0.3,1.4-0.6,2.7-0.9,4.1l-0.1,0.6
		c-0.2,1.2-0.5,2.4-0.7,3.7c-0.1,0.4-0.2,0.9-0.2,1.3c-0.2,1.1-0.4,2.1-0.5,3.2c-0.1,0.4-0.1,0.7-0.2,1.1c-0.2,1.4-0.4,2.8-0.6,4.2
		l-0.1,0.9c-0.1,1.1-0.3,2.3-0.4,3.4c0,0.4-0.1,0.9-0.1,1.3c-0.1,1.2-0.2,2.4-0.3,3.6c0,0.3,0,0.5-0.1,0.7c-0.1,1.4-0.2,2.9-0.3,4.3
		c0,0.4,0,0.8-0.1,1.1c0,1.1-0.1,2.3-0.1,3.4c0,0.4,0,0.8,0,1.3c0,1.5-0.1,2.9-0.1,4.4c0,0,0,0.1,0,0.1c0,1.6,0,3.2,0.1,4.7
		c0,0.5,0,1.1,0.1,1.6c0,1.1,0.1,2.1,0.1,3.2c0,0.6,0.1,1.3,0.1,1.9c0.1,1,0.1,1.9,0.2,2.9c0.1,0.7,0.1,1.4,0.2,2
		c0.1,0.9,0.2,1.8,0.2,2.7c0.1,0.7,0.2,1.4,0.2,2.1c0.1,0.9,0.2,1.7,0.3,2.6c0.1,0.7,0.2,1.4,0.3,2.1c0.1,0.8,0.2,1.7,0.4,2.5
		c0.1,0.7,0.2,1.4,0.3,2.1c0.1,0.8,0.3,1.7,0.4,2.5c0.1,0.7,0.3,1.4,0.4,2.1c0.2,0.8,0.3,1.6,0.5,2.5s0.3,1.4,0.4,2.1
		c0.2,0.8,0.3,1.6,0.5,2.4s0.3,1.4,0.5,2.1c0.2,0.8,0.4,1.6,0.6,2.4c0.2,0.8,0.4,1.4,0.5,2.1c0.2,0.8,0.4,1.6,0.7,2.4
		c0.2,0.7,0.4,1.4,0.6,2.1c0.2,0.8,0.5,1.6,0.7,2.4s0.4,1.4,0.6,2c0.2,0.7,0.5,1.6,0.8,2.3c0.3,0.8,0.4,1.3,0.7,2
		c0.3,0.8,0.5,1.6,0.8,2.3c0.2,0.7,0.5,1.3,0.7,2l0.9,2.3c0.3,0.6,0.5,1.3,0.7,1.9c0.3,0.8,0.6,1.6,1,2.3c0.3,0.6,0.5,1.2,0.8,1.9
		c0.3,0.8,0.7,1.6,1,2.4c0.3,0.6,0.5,1.2,0.8,1.8c0.4,0.8,0.8,1.6,1.1,2.5l0.8,1.6c0.4,0.9,0.9,1.8,1.3,2.7c0.2,0.5,0.4,0.9,0.7,1.4
		c1.4,2.7,2.8,5.3,4.3,7.9C344.3,537.8,344.6,538.3,344.8,538.7z"/>
	<path class="st7" d="M318.8,442.4c0-105.5,85.5-191.1,191.1-191.1s191.1,85.5,191.1,191.1c0.1,57.6-25.9,112.1-70.7,148.3
		c-3.9,3.2-8,6.2-12.1,9.1c-43.1,27.4-97.5,27.4-146.7,23c-4.8-0.7-9.5-1.6-14.2-2.7c-18.9-4.2-37.1-10.6-54-19.9
		c-4.2-2.6-8.2-5.3-12.1-8.3c-3.9-3-7.7-6.2-11.3-9.6c-3.4-3.2-6.7-6.5-9.9-9.9C337,537.1,318.7,490.6,318.8,442.4z"/>
	<path class="st5" d="M428.3,627.7c-65,0-51.6,81.8-52.2,172.8h52.2V627.7z"/>
	<path class="st6" d="M414.7,680.1l16.3,27.3l-8.2,93.1h-22.7C399.6,671.4,414.7,680.1,414.7,680.1z"/>
	<path class="st5" d="M595.4,850.6H424.3c-5.3,0-9.5-4.3-9.5-9.5V637.2c0-5.3,4.3-9.5,9.5-9.5h167c9.4,0,13.6,5.5,13.6,14.2v199.2
		C604.9,846.3,600.7,850.6,595.4,850.6C595.4,850.6,595.4,850.6,595.4,850.6z"/>
	<path class="st6" d="M602.2,633.3c-0.7-0.9-1.3-1.8-1.8-2.9c-1.7-1.3-3.8-2.2-5.9-2.5c-1.1-0.2-2.1-0.2-3.2-0.2h-167
		c-5.2,0-9.5,4.2-9.5,9.5c20.8,7.5,59.7,11.6,95.1,11.6C555,648.8,584.6,642.1,602.2,633.3z"/>
	<path class="st8" d="M588.6,627.7c65,0,51.6,81.8,52.2,172.8h-35.9"/>
	<path class="st8" d="M428.3,627.7c-65,0-51.6,81.8-52.2,172.8h35.9"/>
	<path class="st7" d="M424.3,627.7l167-0.1"/>
	<path class="st6" d="M424.3,850.6h83.5c-78.2,0-72.3-165.6-93-165.6v156C414.7,846.3,419,850.6,424.3,850.6
		C424.2,850.6,424.2,850.6,424.3,850.6z"/>
	<path class="st9" d="M410.5,700.8c-0.1-2.6-0.1-5.3,0-7.9c0.1-2.6,0.3-5.3,0.6-7.9c0.1-1.3,0.3-2.6,0.5-3.9
		c0.2-1.3,0.4-2.6,0.6-3.9c0.5-2.7,1.4-5.4,2.6-7.9c1.2,2.5,2.1,5.2,2.6,7.9c0.3,1.3,0.4,2.6,0.6,3.9c0.2,1.3,0.3,2.6,0.5,3.9
		c0.3,2.6,0.5,5.3,0.6,7.9s0.2,5.3,0,7.9H410.5z"/>
	<path class="st7" d="M604.9,707.4v5.7c0.2,24.4,0.2,49.4,0,73.6c0,2.1,0,4.1,0,6.1v48.3c0,5.3-4.2,9.5-9.5,9.5c0,0,0,0,0,0H424.3
		c-5.3,0-9.5-4.3-9.5-9.5v-41.7c0-1.8,0-3.6,0-5.5c-0.2-25-0.2-50,0-75.4v-17.7"/>
	<path class="st9" d="M600.6,707.4c-0.1-3-0.1-6,0-9c0.1-3,0.3-6,0.6-9c0.1-1.5,0.3-3,0.5-4.5c0.2-1.5,0.4-3,0.6-4.5
		c0.5-3.1,1.4-6.1,2.6-9c1.2,2.9,2.1,5.9,2.6,9c0.3,1.5,0.4,3,0.6,4.5c0.2,1.5,0.3,3,0.5,4.5c0.3,3,0.5,6,0.6,9c0.1,3,0.2,6,0,9
		H600.6z"/>
	<path class="st9" d="M560.4,687.6c0.2-6.8,8.8-9.6,13-5.3c2.9,3,2.9,7.8-0.1,10.7c-3,2.9-7.8,2.9-10.7-0.1l0,0
		C561.2,691.5,560.4,689.6,560.4,687.6z"/>
	<path class="st9" d="M444,687.4c-0.2-5.8,6.3-8.7,10.6-6.6c5.7,2.1,5.7,10,0,13.6c-2.9,1.4-5.7,0-8.4-1.8
		C444.8,691.3,444,689.4,444,687.4z"/>
	<path class="st6" d="M509.8,680c0.5,1.3,0.9,2.8,1.1,4.2c0.2,1.4,0.3,2.8,0.4,4.2l0.2,8.4c0.1,2.8,0.2,5.6,0.2,8.4l0.1,8.4
		c0.2,11.2,0.2,22.3,0.2,33.5c0,11.2,0.1,22.3,0,33.5c-0.1,5.6-0.2,11.2-0.4,16.7c-0.1,2.8-0.2,5.6-0.5,8.4
		c-0.2,2.8-0.7,5.6-1.3,8.4c-0.6-2.8-1-5.6-1.3-8.4c-0.3-2.8-0.4-5.6-0.5-8.4c-0.2-5.6-0.3-11.2-0.4-16.7c-0.1-11.2,0-22.3,0-33.5
		c0-11.2,0-22.3,0.1-33.5l0.1-8.4l0.2-8.4l0.2-8.4c0-1.4,0.1-2.8,0.4-4.2C509,682.7,509.3,681.3,509.8,680z"/>
	<path class="st6" d="M456.3,716.7c1.1-0.5,2.2-0.9,3.3-1.1c1.1-0.2,2.2-0.3,3.4-0.4l6.7-0.2l13.4-0.3c8.9-0.1,17.8-0.2,26.8-0.2
		c8.9,0,17.9-0.1,26.8,0c4.5,0.1,8.9,0.2,13.4,0.4c2.2,0.1,4.5,0.2,6.7,0.5c2.3,0.3,4.5,0.7,6.7,1.3c-2.2,0.6-4.4,1-6.7,1.3
		c-2.2,0.3-4.5,0.4-6.7,0.5c-4.5,0.2-8.9,0.3-13.4,0.4c-8.9,0.1-17.8,0-26.8,0s-17.9,0-26.8-0.1c-4.5,0-8.9-0.2-13.4-0.4l-6.7-0.2
		c-1.1,0-2.2-0.2-3.3-0.4C458.5,717.5,457.3,717.2,456.3,716.7z"/>
	<path class="st6" d="M468.6,739.2c0.8-0.4,1.7-0.7,2.7-0.8c0.9-0.1,1.7-0.2,2.6-0.1c1.7,0.1,3.4,0.1,5.1,0.2
		c3.4,0.1,6.8,0.1,10.3,0.1c6.9,0,13.7,0.1,20.6-0.2c6.9-0.2,13.8-0.3,20.7-0.3c3.4,0,6.9,0.1,10.3,0.2c1.7,0,3.5,0.1,5.2,0.3
		c1.8,0.2,3.5,0.6,5.2,1.1c-1.7,0.7-3.4,1.1-5.1,1.4c-1.7,0.3-3.4,0.5-5.2,0.6c-3.5,0.3-6.9,0.5-10.3,0.6
		c-6.9,0.3-13.8,0.2-20.7,0.3c-3.4,0-6.9,0.2-10.4,0.1c-3.5-0.1-6.9-0.1-10.4-0.2c-3.5-0.1-6.9-0.4-10.4-0.8
		c-1.7-0.2-3.5-0.4-5.2-0.6c-0.9-0.1-1.7-0.3-2.6-0.6C470.1,740.2,469.3,739.7,468.6,739.2z"/>
	<path class="st6" d="M466.1,764.6c0.8-0.5,1.8-0.9,2.7-1.1c0.9-0.2,1.8-0.3,2.7-0.4l5.5-0.2c3.6-0.1,7.3-0.2,10.9-0.3
		c7.3-0.1,14.6-0.1,21.9-0.1s14.6-0.1,21.9,0c3.6,0.1,7.3,0.2,10.9,0.4c1.8,0.1,3.7,0.2,5.5,0.5c1.9,0.3,3.7,0.7,5.5,1.3
		c-1.8,0.6-3.6,1-5.5,1.3c-1.8,0.3-3.6,0.4-5.5,0.5c-3.6,0.2-7.3,0.3-10.9,0.4c-7.3,0.1-14.6,0-21.9,0c-7.3,0-14.6,0-21.9-0.2
		c-3.6-0.1-7.3-0.2-10.9-0.4l-5.5-0.3c-0.9,0-1.8-0.1-2.7-0.4C467.8,765.4,466.9,765.1,466.1,764.6z"/>
	<polygon class="st6" points="544.1,691.6 513.9,667 567.4,627.7 452.3,627.7 505.7,667 475.5,691.6 448.6,651.1 448.6,707.3 
		573.4,707.3 573.4,647.6 	"/>
	<path class="st10" d="M593.4,627.3l-30.6,0.1c-0.2,3.2-0.5,6.5-1,9.7c-0.3,1.5-0.8,3-1.2,4.5c-1.7,4.6-12.4,8.6-15.4,12
		c-1,1.1-2.1,2.2-3.2,3.2c-18,13-46.7,13.8-64.1-0.4c-1.9-1.6-3.6-3.5-5.1-5.5c-3-4-11.7-8.3-13-13.6c-0.3-1.6-0.6-3.1-0.8-4.7
		c-0.2-1.6-0.3-3.2-0.3-4.9l-32.4-0.4c-5.3,0-9.5,4.3-9.5,9.5v203.9c0,5.3,4.3,9.5,9.5,9.5h171.1c5.2,0,9.5-4.3,9.5-9.5l0,0V641.5
		C607,632.8,602.7,627.3,593.4,627.3z"/>
	<path class="st10" d="M590.6,627.3c45.5,0,63.4,31.1,56.5,194.8c-13.4,4.8-40,3.3-40,3.3L590.6,627.3z"/>
	<polygon class="st11" points="474.8,696.9 509.5,679.7 544.3,696.9 517.7,666.1 486.3,666.7 	"/>
	<path class="st11" d="M607,679.7c0,0-16.3,60.5-13.8,167.6l23.8-22.2l2.6-98.5C615.5,674.8,607,679.7,607,679.7z"/>
	<path class="st10" d="M430.3,627.3c-44.2,0-63.7,40.4-57.8,175.8c16.1,7.1,40.2,4,40.2,4L430.3,627.3z"/>
	<path class="st11" d="M371.5,770c0.1,9.8,0.4,20.1,0.9,31.1c10.9,0.5,31.3,0.6,40.9,0l3-30.7C408.6,769.6,383.5,769.3,371.5,770z"
		/>
	<path class="st11" d="M416.8,679.7l-0.4,127.3l-9.6,0.6C404.7,700.8,416.8,679.7,416.8,679.7z"/>
	<path class="st8" d="M590.6,627.3c48.3,0,56.2,40.3,56.5,95.8v99c0,0-35.8,4-40,3.3L607,723.6"/>
	<path class="st8" d="M430.3,627.3c-18.4,0-31.2,5.8-39.9,16.1c-13.9,16.4-17.6,44.1-17.9,77.5v88.6c8.6,2.4,43.9-2.6,43.9-2.6
		l0.4-84.9"/>
	<path class="st12" d="M418.6,808.5c-1.3,1.9-52.8,1.4-53.5,0c-0.6-1.4-1.6-26.9,0-29.4c1.3-2.1,51.6-1.6,53.5,0
		C420.4,780.8,419.9,806.7,418.6,808.5z"/>
	<path class="st11" d="M426.3,850.2h83.5c-78.2,0-72.3-165.5-93-165.5v156C416.8,845.9,421.1,850.2,426.3,850.2
		C426.3,850.2,426.3,850.2,426.3,850.2z"/>
	<path class="st9" d="M412.5,700.4c-0.1-2.6-0.1-5.3,0-7.9c0.1-2.6,0.3-5.3,0.6-7.9c0.1-1.3,0.3-2.6,0.5-3.9
		c0.2-1.3,0.4-2.6,0.6-3.9c0.5-2.7,1.4-5.4,2.6-7.9c1.2,2.5,2.1,5.2,2.6,7.9c0.3,1.3,0.4,2.6,0.6,3.9s0.3,2.6,0.5,3.9
		c0.3,2.6,0.5,5.3,0.6,7.9c0.1,2.6,0.2,5.3,0,7.9H412.5z"/>
	<path class="st7" d="M607,706.9v5.7c0.2,24.4,0.2,49.4,0,73.6c0,2.1,0,4.1,0,6.1v48.3c0,5.2-4.3,9.5-9.5,9.5c0,0,0,0,0,0H426.3
		c-5.3,0-9.5-4.3-9.5-9.5v-47.1c-0.2-25-0.2-50,0-75.4v-17.7"/>
	<path class="st12" d="M651.2,779.2c1.6,1.6,1.1,27.5,0,29.4s-45.8,1.4-46.4,0s-1.4-26.9,0-29.4c0.2-0.4,1.6-0.6,3.9-0.8"/>
	<path class="st10" d="M638,777.8c2.7,0.2,10.7-0.8,11-0.5"/>
	<path class="st9" d="M638,777.8c0.4-0.5,0.9-1.1,1.3-1.5c0.4-0.4,0.8-0.7,1.3-1.1c0.4-0.3,0.8-0.5,1.3-0.7c0.4-0.2,0.9-0.4,1.3-0.6
		c0.9-0.4,1.8-0.6,2.7-0.8c0.5-0.1,1-0.2,1.4-0.2c0.3,0,0.5,0,0.8,0c0.2,0,0.3,0,0.6,0c0.1,0,0.3,0,0.5,0.1h0.3l0.4,0.1l0.2,0l0.1,0
		l0.4,0.2c0.5,0.2,1,0.6,1.4,1l3,3.1l-6.2,6.1l-3-3.1c0.4,0.4,0.9,0.7,1.4,0.9c0.1,0.1,0.3,0.1,0.4,0.1h0.1l0.1,0
		c0.1,0,0.2,0.1,0.3,0.1h0.1l0,0c0.1,0,0.2,0,0.2,0s-0.1,0-0.1,0h-0.5c-0.4,0-0.9,0-1.3,0c-0.9-0.1-1.9-0.2-2.8-0.4
		c-0.5-0.1-1-0.2-1.4-0.4c-0.5-0.1-1-0.3-1.4-0.5c-0.5-0.3-1-0.6-1.5-0.9C638.8,778.8,638.3,778.3,638,777.8z"/>
	<polygon class="st11" points="576.1,631.2 522.6,670.5 552.8,695.1 595.3,631.2 	"/>
	<path class="st9" d="M602.7,706.9c-0.1-3-0.1-6,0-9c0.1-3,0.3-6,0.6-9c0.1-1.5,0.3-3,0.5-4.5c0.2-1.5,0.4-3,0.6-4.5
		c0.5-3.1,1.4-6.1,2.6-9c1.2,2.9,2.1,5.9,2.6,9c0.3,1.5,0.5,3,0.6,4.5c0.2,1.5,0.3,3,0.5,4.5c0.3,3,0.5,6,0.6,9s0.2,6,0,9H602.7z"/>
	<path class="st7" d="M426.3,627.3l167-0.1"/>
	<polygon class="st11" points="530.9,682.7 514.9,666.7 498.9,682.7 506.7,690.6 499.8,766.9 514.6,778.5 530,766.9 523,690.6 	"/>
	<line class="st13" x1="509.8" y1="666.7" x2="509.8" y2="850.2"/>
	<polygon class="st3" points="509.8,666.7 525.9,677.7 509.8,693.7 493.8,677.7 	"/>
	<path class="st14" d="M452.2,627.7c0,0,31,28.2,53.5,39.3c-10.9,18.1-30.2,24.6-30.2,24.6L433,627.7L452.2,627.7z"/>
	<path class="st14" d="M567.4,627.7c0,0-28.2,29.5-53.5,39.3c7.2,14.5,30.2,24.6,30.2,24.6l42.6-63.9L567.4,627.7z"/>
	<g transform="translate(0 30)">
		<path class="st15" d="M557.7,733.1c0-6.3-7.9-12.4-20.1-16.1c2.8-12.4,1.6-22.3-3.9-25.5c-1.3-0.9-2.8-1.2-4.4-1.1
			c-5.7,0.1-12.4,3.8-19.5,10.5c-7.1-6.6-15-10.5-19.5-10.4c-2.3,0.1-3.1,0.4-4.4,1.1c-5.5,3.2-6.7,13-3.9,25.4
			c-12.2,3.7-20.1,9.7-20.1,16.1c0,6.3,8,12.4,20.1,16.1c-2.8,12.4-1.6,22.3,3.9,25.5c1.3,0.8,2.9,1.1,4.4,1.1
			c5.4,0,12.4-3.8,19.5-10.5c7.1,6.6,14.1,10.4,19.5,10.4c1.5,0,3.1-0.3,4.4-1.1c5.5-3.2,6.7-13,3.9-25.4
			C549.8,745.5,557.7,739.4,557.7,733.1z M529.3,694.8L529.3,694.8c0.8,0,1.5,0.2,2.2,0.5c2.7,1.5,3.8,7.3,2.9,14.8
			c-0.2,1.8-0.6,3.8-1,5.7c-4.1-1-8.2-1.7-12.4-2.1c-2.5-3.4-5.2-6.7-8.1-9.8C519.2,698,525.2,694.8,529.3,694.8L529.3,694.8z
			 M492.5,743.1c0.9,1.6,1.9,3.1,2.8,4.6c-2.8-0.4-5.5-0.9-8-1.5c0.7-2.5,1.6-5.1,2.6-7.7C490.8,740,491.6,741.6,492.5,743.1
			L492.5,743.1z M487.3,720.1c2.6-0.6,5.2-1.1,8-1.5c-1,1.5-1.9,3-2.8,4.6c-0.9,1.6-1.7,3.1-2.5,4.7
			C488.9,725.3,488,722.7,487.3,720.1L487.3,720.1z M492.2,733.2c1.2-2.6,2.6-5.2,4-7.8c1.5-2.6,3.1-5.1,4.7-7.5
			c2.9-0.3,5.9-0.4,8.8-0.4c3,0,5.9,0.1,8.8,0.4c1.6,2.3,3.2,4.8,4.7,7.4c1.5,2.6,2.9,5.2,4.1,7.8c-1.2,2.6-2.6,5.2-4,7.8
			c-1.5,2.6-3.1,5.1-4.7,7.5c-2.9,0.3-5.9,0.4-8.8,0.4c-3,0-5.9-0.1-8.8-0.4c-1.6-2.3-3.2-4.8-4.7-7.4S493.5,735.8,492.2,733.2
			L492.2,733.2z M527.1,743.1c0.9-1.6,1.7-3.1,2.5-4.7c1,2.5,1.9,5.1,2.7,7.8c-2.6,0.6-5.2,1.2-8,1.6
			C525.3,746.2,526.2,744.6,527.1,743.1L527.1,743.1z M527.1,723.1c-0.9-1.6-1.9-3.1-2.8-4.6c2.8,0.4,5.4,0.9,8,1.5
			c-0.7,2.5-1.6,5.1-2.6,7.7C528.9,726.2,528,724.7,527.1,723.1L527.1,723.1z M515.2,713.3c-1.8-0.1-3.6-0.1-5.4-0.1
			c-1.8,0-3.7,0-5.4,0.1c1.7-2.2,3.5-4.3,5.4-6.2C511.7,709,513.5,711.1,515.2,713.3z M488,695.4c0.7-0.4,1.5-0.5,2.2-0.5l0,0
			c4,0,10,3.2,16.4,9.1c-2.9,3.1-5.6,6.3-8.1,9.7c-4.2,0.4-8.3,1.2-12.4,2.1c-0.5-1.9-0.8-3.8-1-5.7
			C484.3,702.7,485.4,696.9,488,695.4L488,695.4z M483.1,745c-1.9-0.6-3.8-1.3-5.5-2c-6.9-3-11.4-6.8-11.4-9.9s4.5-7,11.4-9.9
			c1.7-0.7,3.5-1.4,5.4-2c1.2,4.1,2.7,8,4.4,11.9C485.7,737,484.3,740.9,483.1,745L483.1,745z M490.4,771.4c-0.8,0-1.5-0.2-2.2-0.5
			c-2.7-1.5-3.8-7.3-2.9-14.8c0.2-1.8,0.6-3.8,1-5.7c4.1,1,8.2,1.7,12.4,2.1c2.5,3.4,5.2,6.7,8.1,9.8
			C500.4,768.2,494.4,771.4,490.4,771.4L490.4,771.4z M509.9,759.2c-1.9-2-3.7-4.1-5.4-6.3c1.8,0.1,3.6,0.1,5.4,0.1s3.7,0,5.4-0.1
			C513.6,755.1,511.8,757.2,509.9,759.2L509.9,759.2z M531.6,770.8c-0.7,0.4-1.5,0.5-2.2,0.5c-4,0-10-3.2-16.4-9.1
			c2.9-3.1,5.6-6.3,8.1-9.7c4.2-0.4,8.3-1.2,12.4-2.1c0.4,1.9,0.8,3.8,1,5.7C535.4,763.5,534.2,769.3,531.6,770.8L531.6,770.8z
			 M542,743c-1.7,0.7-3.5,1.4-5.4,2c-1.2-4.1-2.7-8-4.4-11.9c1.7-3.8,3.1-7.8,4.3-11.8c1.9,0.6,3.8,1.3,5.5,2
			c6.9,3,11.4,6.8,11.4,9.9S548.9,740.1,542,743L542,743z"/>
		<circle class="st16" cx="509.8" cy="733.1" r="8.9"/>
		<path class="st17" d="M557.7,733.1c0-6.3-7.9-12.4-20.1-16.1c2.8-12.4,1.6-22.3-3.9-25.5c-1.3-0.9-2.8-1.2-4.4-1.1
			c-5.7,0.1-12.4,3.8-19.5,10.5c-7.1-6.6-15-10.5-19.5-10.4c-2.3,0.1-3.1,0.4-4.4,1.1c-5.5,3.2-6.7,13-3.9,25.4
			c-12.2,3.7-20.1,9.7-20.1,16.1c0,6.3,8,12.4,20.1,16.1c-2.8,12.4-1.6,22.3,3.9,25.5c1.3,0.8,2.9,1.1,4.4,1.1
			c5.4,0,12.4-3.8,19.5-10.5c7.1,6.6,14.1,10.4,19.5,10.4c1.5,0,3.1-0.3,4.4-1.1c5.5-3.2,6.7-13,3.9-25.4
			C549.8,745.5,557.7,739.4,557.7,733.1z M529.3,694.8L529.3,694.8c0.8,0,1.5,0.2,2.2,0.5c2.7,1.5,3.8,7.3,2.9,14.8
			c-0.2,1.8-0.6,3.8-1,5.7c-4.1-1-8.2-1.7-12.4-2.1c-2.5-3.4-5.2-6.7-8.1-9.8C519.2,698,525.2,694.8,529.3,694.8L529.3,694.8z
			 M492.5,743.1c0.9,1.6,1.9,3.1,2.8,4.6c-2.8-0.4-5.5-0.9-8-1.5c0.7-2.5,1.6-5.1,2.6-7.7C490.8,740,491.6,741.6,492.5,743.1
			L492.5,743.1z M487.3,720.1c2.6-0.6,5.2-1.1,8-1.5c-1,1.5-1.9,3-2.8,4.6c-0.9,1.6-1.7,3.1-2.5,4.7
			C488.9,725.3,488,722.7,487.3,720.1L487.3,720.1z M492.2,733.2c1.2-2.6,2.6-5.2,4-7.8c1.5-2.6,3.1-5.1,4.7-7.5
			c2.9-0.3,5.9-0.4,8.8-0.4c3,0,5.9,0.1,8.8,0.4c1.6,2.3,3.2,4.8,4.7,7.4c1.5,2.6,2.9,5.2,4.1,7.8c-1.2,2.6-2.6,5.2-4,7.8
			c-1.5,2.6-3.1,5.1-4.7,7.5c-2.9,0.3-5.9,0.4-8.8,0.4c-3,0-5.9-0.1-8.8-0.4c-1.6-2.3-3.2-4.8-4.7-7.4S493.5,735.8,492.2,733.2
			L492.2,733.2z M527.1,743.1c0.9-1.6,1.7-3.1,2.5-4.7c1,2.5,1.9,5.1,2.7,7.8c-2.6,0.6-5.2,1.2-8,1.6
			C525.3,746.2,526.2,744.6,527.1,743.1L527.1,743.1z M527.1,723.1c-0.9-1.6-1.9-3.1-2.8-4.6c2.8,0.4,5.4,0.9,8,1.5
			c-0.7,2.5-1.6,5.1-2.6,7.7C528.9,726.2,528,724.7,527.1,723.1L527.1,723.1z M515.2,713.3c-1.8-0.1-3.6-0.1-5.4-0.1
			c-1.8,0-3.7,0-5.4,0.1c1.7-2.2,3.5-4.3,5.4-6.2C511.7,709,513.5,711.1,515.2,713.3z M488,695.4c0.7-0.4,1.5-0.5,2.2-0.5l0,0
			c4,0,10,3.2,16.4,9.1c-2.9,3.1-5.6,6.3-8.1,9.7c-4.2,0.4-8.3,1.2-12.4,2.1c-0.5-1.9-0.8-3.8-1-5.7
			C484.3,702.7,485.4,696.9,488,695.4L488,695.4z M483.1,745c-1.9-0.6-3.8-1.3-5.5-2c-6.9-3-11.4-6.8-11.4-9.9s4.5-7,11.4-9.9
			c1.7-0.7,3.5-1.4,5.4-2c1.2,4.1,2.7,8,4.4,11.9C485.7,737,484.3,740.9,483.1,745L483.1,745z M490.4,771.4c-0.8,0-1.5-0.2-2.2-0.5
			c-2.7-1.5-3.8-7.3-2.9-14.8c0.2-1.8,0.6-3.8,1-5.7c4.1,1,8.2,1.7,12.4,2.1c2.5,3.4,5.2,6.7,8.1,9.8
			C500.4,768.2,494.4,771.4,490.4,771.4L490.4,771.4z M509.9,759.2c-1.9-2-3.7-4.1-5.4-6.3c1.8,0.1,3.6,0.1,5.4,0.1s3.7,0,5.4-0.1
			C513.6,755.1,511.8,757.2,509.9,759.2L509.9,759.2z M531.6,770.8c-0.7,0.4-1.5,0.5-2.2,0.5c-4,0-10-3.2-16.4-9.1
			c2.9-3.1,5.6-6.3,8.1-9.7c4.2-0.4,8.3-1.2,12.4-2.1c0.4,1.9,0.8,3.8,1,5.7C535.4,763.5,534.2,769.3,531.6,770.8L531.6,770.8z
			 M542,743c-1.7,0.7-3.5,1.4-5.4,2c-1.2-4.1-2.7-8-4.4-11.9c1.7-3.8,3.1-7.8,4.3-11.8c1.9,0.6,3.8,1.3,5.5,2
			c6.9,3,11.4,6.8,11.4,9.9S548.9,740.1,542,743L542,743z"/>
		<circle class="st17" cx="509.8" cy="733.1" r="8.9"/>
	</g>
	<polygon class="st3" points="494.7,761.9 509.6,773.5 524.9,761.9 517.8,683.3 501.9,683.3 	"/>
	<polyline class="st18" points="493.8,677.7 501.7,685.5 494.7,761.9 509.6,773.5 524.9,761.9 518,685.5 525.9,677.7 	"/>
	<path class="st10" d="M608.7,778.3c5.4-0.5,15.4-0.6,24.4-0.5"/>
	<path class="st9" d="M608.3,774c2.1-0.3,4.2-0.4,6.3-0.3c2.1,0.1,4.1,0.2,6.2,0.5c1,0.1,2.1,0.3,3.1,0.4c1,0.2,2.1,0.4,3.1,0.6
		c2.2,0.5,4.2,1.4,6.1,2.6c-1.9,1.1-4,2-6.1,2.5c-1,0.3-2,0.5-3,0.6c-1,0.2-2,0.3-3,0.5c-2,0.3-4,0.6-6,0.7c-2,0.2-4,0.4-5.8,0.4
		l-4.3,0.1l-0.7-8L608.3,774z"/>
	<circle class="st9" cx="521.1" cy="788.3" r="3.4"/>
	<path class="st9" d="M503.3,683.2C503.3,683.1,503.3,683.2,503.3,683.2L503.3,683.2c0.1,0.1,0.1,0.1,0.2,0.1l0.3,0.2
		c0.2,0.2,0.4,0.3,0.6,0.5c0.4,0.3,0.8,0.7,1.2,1s0.9,0.6,1.4,1c0.7,0.5,1.3,1.1,1.9,1.7c-0.5,0.8-1.3,1.5-2.2,1.7
		c-0.9,0.2-1.8,0.3-2.7,0.2c-0.9-0.1-1.8-0.3-2.6-0.7c-0.4-0.2-0.8-0.4-1.2-0.7c-0.2-0.1-0.4-0.3-0.6-0.5c-0.1-0.1-0.2-0.2-0.3-0.3
		l-0.1-0.2l-0.2-0.2L503.3,683.2z"/>
	<path class="st19" d="M631.6,648.9c1.6-1.6,3.1-3.2,4.7-4.8c32.3-39.2,34.9-80.5,41.4-106.3v-10.2l-1.7,0.6
		c0.6-1.1,1.2-2.1,1.7-3.3c0-0.1-2.5,2.4-2.5,2.3c-1.1,0.9-2.4,1.8-3.6,2.5l-23.3,8.1c-10.4,2-20.9,2.9-31.4,2.7
		c-45.1-0.2-45.3-10.7-81.1-14.3l-69.1,1.1c-18.4,2.8-26.5,8.5-63,9.2c-31.6,0.6-59.9-7.2-59.9-7.2v9.1c10,26.4,3.3,46.1,20.8,79.1
		c0-0.5,0-0.9,0-1.4c-3.1-15.5,0-29.8,1.5-35.2c0.2-1.3,0.3-2.1,0.3-2.1v-0.1c0-0.1,0-0.1,0-0.1v0.1c0,0.1,0.1,0.3,0.2,0.6
		c0.2-0.5,0.3-0.8,0.3-0.8s0.6,3.5,1.8,9.1c2.8,11.1,8,30.8,13.9,50.2c0.7,1.7,1.3,3.4,2,5.1c0.1,0.2,0.1,0.3,0.2,0.5
		c20,21.4,44.5,39.6,66.7,53.4c2.4,1.4,4.7,2.8,6.8,4c-2-10.3-1.4-20.9,1.7-30.8c0,0,0.1,0.3,0.2,0.8c0.2-0.6,0.3-0.9,0.3-0.9
		s8.2,34,24.7,45c0.4,0.2,0.8,0.3,1.2,0.5l-0.3,0.1l0.1,0c0.4,0.2,0.8,0.5,1.3,0.7c5,2.3,10.1,4.4,15.3,6.1c3.9,1.1,7,1.7,8.6,1.7
		c3.4,0,22.9-7.6,34.9-35.1c0.8-2.3,1.2-3.8,1.2-3.8l0.2,0.5c0.1-0.2,0.2-0.4,0.2-0.6c3.9,6.5,5.9,14,5.7,21.6
		c18.1-9.9,35.4-21.3,51.6-34.1v-0.1c0.2-0.5,0.4-0.9,0.6-1.4l0-0.1l0.6-1.4l0,0l0.6-1.5l0,0c10.4-25.7,16.9-63.7,16.9-63.7
		c0-0.1,0.2,0.1,0.4,0.5c0-0.4,0-0.6,0-0.6S635.7,620.3,631.6,648.9z"/>
	<path class="st19" d="M631.6,648.9c1.6-1.6,3.1-3.2,4.7-4.8c32.3-39.2,34.9-80.5,41.4-106.3v-10.2l-1.7,0.6
		c0.6-1.1,1.2-2.1,1.7-3.3c0-0.1-2.5,2.4-2.5,2.3c-1.1,0.9-2.4,1.8-3.6,2.5l-23.3,8.1c-10.4,2-20.9,2.9-31.4,2.7
		c-45.1-0.2-45.3-10.7-81.1-14.3l-69.1,1.1c-18.4,2.8-26.5,8.5-63,9.2c-31.6,0.6-59.9-7.2-59.9-7.2v9.1c10,26.4,3.3,46.1,20.8,79.1
		c0-0.5,0-0.9,0-1.4c-3.1-15.5,0-29.8,1.5-35.2c0.2-1.3,0.3-2.1,0.3-2.1v-0.1c0-0.1,0-0.1,0-0.1v0.1c0,0.1,0.1,0.3,0.2,0.6
		c0.2-0.5,0.3-0.8,0.3-0.8s0.6,3.5,1.8,9.1c2.8,11.1,8,30.8,13.9,50.2c0.7,1.7,1.3,3.4,2,5.1c0.1,0.2,0.1,0.3,0.2,0.5
		c20,21.4,44.5,39.6,66.7,53.4c2.4,1.4,4.7,2.8,6.8,4c-2-10.3-1.4-20.9,1.7-30.8c0,0,0.1,0.3,0.2,0.8c0.2-0.6,0.3-0.9,0.3-0.9
		s8.2,34,24.7,45c0.4,0.2,0.8,0.3,1.2,0.5l-0.3,0.1l0.1,0c0.4,0.2,0.8,0.5,1.3,0.7c5,2.3,10.1,4.4,15.3,6.1c3.9,1.1,7,1.7,8.6,1.7
		c3.4,0,22.9-7.6,34.9-35.1c0.8-2.3,1.2-3.8,1.2-3.8l0.2,0.5c0.1-0.2,0.2-0.4,0.2-0.6c3.9,6.5,5.9,14,5.7,21.6
		c18.1-9.9,35.4-21.3,51.6-34.1v-0.1c0.2-0.5,0.4-0.9,0.6-1.4l0-0.1l0.6-1.4l0,0l0.6-1.5l0,0c10.4-25.7,16.9-63.7,16.9-63.7
		c0-0.1,0.2,0.1,0.4,0.5c0-0.4,0-0.6,0-0.6S635.7,620.3,631.6,648.9z"/>
	<path class="st19" d="M631.6,648.9c1.6-1.6,3.1-3.2,4.7-4.8c32.3-39.2,34.9-80.5,41.4-106.3v-10.2l-1.7,0.6
		c0.6-1.1,1.2-2.1,1.7-3.3c0-0.1-2.5,2.4-2.5,2.3c-1.1,0.9-2.4,1.8-3.6,2.5l-23.3,8.1c-10.4,2-20.9,2.9-31.4,2.7
		c-45.1-0.2-56.1-14.1-81.1-14.3c-25-0.2-55.1-0.9-69.1,1.1c-14,2-26.5,8.5-63,9.2c-31.6,0.6-59.9-7.2-59.9-7.2v9.1
		c10,26.4,3.3,46.1,20.8,79.1c0-0.5,0-0.9,0-1.4c-3.1-15.5,0-29.8,1.5-35.2c0.2-1.3,0.3-2.1,0.3-2.1v-0.1c0-0.1,0-0.1,0-0.1v0.1
		c0,0.1,0.1,0.3,0.2,0.6c0.2-0.5,0.3-0.8,0.3-0.8s0.6,3.5,1.8,9.1c2.8,11.1,8,30.8,13.9,50.2c0.7,1.7,1.3,3.4,2,5.1
		c0.1,0.2,0.1,0.3,0.2,0.5c20,21.4,44.5,39.6,66.7,53.4c2.4,1.4,4.7,2.8,6.8,4c-2-10.3-1.4-20.9,1.7-30.8c0,0,0.1,0.3,0.2,0.8
		c0.2-0.6,0.3-0.9,0.3-0.9s8.2,34,24.7,45c0.4,0.2,0.8,0.3,1.2,0.5l-0.3,0.1l0.1,0c0.4,0.2,0.8,0.5,1.3,0.7c5,2.3,10.1,4.4,15.3,6.1
		c3.9,1.1,7,1.7,8.6,1.7c3.4,0,22.9-7.6,34.9-35.1c0.8-2.3,1.2-3.8,1.2-3.8l0.2,0.5c0.1-0.2,0.2-0.4,0.2-0.6
		c3.9,6.5,5.9,14,5.7,21.6c18.1-9.9,35.4-21.3,51.6-34.1v-0.1c0.2-0.5,0.4-0.9,0.6-1.4l0-0.1l0.6-1.4l0,0l0.6-1.5l0,0
		c10.4-25.7,16.9-63.7,16.9-63.7c0-0.1,0.2,0.1,0.4,0.5c0-0.4,0-0.6,0-0.6S635.7,620.3,631.6,648.9z"/>
	<path class="st20" d="M397.7,590.6c2.7,2.4,6.2,3.9,9.9,4.2c-10.2-8.1-14-16-15.2-19.6c-3.7-12.7-6.1-25.8-7.2-39.1
		c-14-1-27.9-3.2-41.4-6.7v9.1c10,26.4,3.3,46.1,20.8,79.1c0-0.5,0-0.9,0-1.4c-3.1-15.5,0-29.8,1.5-35.2c0.2-1.3,0.3-2.1,0.3-2.1
		v-0.1c0-0.1,0-0.1,0-0.1v0.1c0,0.1,0.1,0.3,0.2,0.6c0.2-0.5,0.3-0.8,0.3-0.8s0.6,3.5,1.8,9.1c2.8,11.1,8,30.8,13.9,50.2
		c0.7,1.7,1.3,3.4,2,5.1c0.1,0.2,0.1,0.3,0.2,0.5c20,21.4,44.5,39.6,66.7,53.4c2.4,1.4,4.7,2.8,6.8,4c-2-10.3-1.4-20.9,1.7-30.8
		c0,0,0.1,0.3,0.2,0.8c0.2-0.6,0.3-0.9,0.3-0.9s8.2,34,24.7,45c0.4,0.2,0.8,0.3,1.2,0.5l-0.3,0.1l0.1,0c0.4,0.2,0.8,0.5,1.3,0.7
		c5,2.3,10.1,4.4,15.3,6.1c3.9,1.1,7,1.7,8.6,1.7c2.5,0,14-4.2,24.6-17.7C486.1,690.2,424.4,657.2,397.7,590.6z"/>
	<path class="st20" d="M462.5,669.3c0,0,6.8,6.4,21,2.9c-1.1,2.5-4.2,3.9-4.2,3.9s4.4,5.8,13.7,5.6c0,0-5.5,3.4-11.1,1.2
		c-4.4-0.6-8.7-1-13.1-1.2l-9.7-6.7L462.5,669.3z"/>
	<path class="st9" d="M403.6,536.6c-1.3,0.2-2.5,0.4-3.8,0.6c-0.6,0.1-1.3,0.2-1.9,0.3l-1.9,0.2l-3.8,0.3c-1.3,0.1-2.5,0.1-3.8,0.1
		c-2.5,0.1-5.1-0.1-7.6-0.1c-2.5-0.1-5.1-0.3-7.6-0.5c-2.5-0.2-5.1-0.5-7.6-0.8c-2.5-0.3-5-0.7-7.6-1.1c-5.1-0.8-10.1-1.9-15-3.3
		l-2.8-0.8l1.5-5.4l2.8,0.7c4.7,1.2,9.6,2.2,14.5,3.2c4.9,1,9.8,1.9,14.7,2.7c2.5,0.4,4.9,0.7,7.4,1.1c2.5,0.4,5,0.7,7.4,0.9
		C393.6,535.2,398.5,535.7,403.6,536.6z"/>
	<path class="st20" d="M631.1,649.4c7.3-7.3,6.7-6.9,12.7-15c-1.1-24.7-21.5-38.5-21.5-38.5l1.4,8.4c0.6,0.1,5.7,13.2,5.4,33
		L631.1,649.4z"/>
	<path class="st20" d="M563.8,700.1c-4.1-17.8-16.1-20.9-16.1-20.9l2.3,13.9c1.4,4.5,2.3,9.1,2.8,13.7c3.6-1.9,7.3-4.1,11.1-6.3
		L563.8,700.1z"/>
	<path class="st9" d="M395.3,611.1c1,5,2.6,9.8,4.7,14.4c2.1,4.5,4.6,8.9,7.4,13l2.2,3c0.4,0.5,0.7,1,1.1,1.5l1.2,1.4
		c0.8,0.9,1.6,1.9,2.4,2.9l2.5,2.7c0.4,0.4,0.8,0.9,1.3,1.4l1.4,1.3l2.7,2.6c1.8,1.7,3.8,3.2,5.7,4.8l-4.5,2.4l0-2.9
		c0-0.9,0.1-1.9,0.1-2.9s0.2-1.9,0.3-2.9c0.1-0.5,0.1-0.9,0.2-1.4l0.3-1.4c0.4-1.9,1-3.7,1.8-5.5c0.4-0.9,0.8-1.7,1.3-2.6
		c0.2-0.4,0.5-0.8,0.8-1.3c0.2-0.2,0.3-0.4,0.5-0.6s0.3-0.4,0.6-0.7l3.2-3.6l0.4,4.7c0.1,0.8,0.2,1.7,0.4,2.6
		c0.2,0.9,0.4,1.8,0.6,2.6c0.5,1.7,1.1,3.5,1.8,5.1c0.8,1.7,1.7,3.2,2.8,4.7c1.2,1.5,2.5,2.8,4,3.9c-1.8-0.7-3.5-1.7-5-2.9
		c-1.5-1.3-2.8-2.8-4-4.4c-1.1-1.7-2.1-3.4-2.9-5.2c-0.4-0.9-0.7-1.8-1-2.8c-0.3-1-0.6-2-0.8-3l3.6,1.1c0,0.1-0.2,0.3-0.2,0.4
		c-0.1,0.1-0.2,0.3-0.3,0.5c-0.2,0.3-0.4,0.7-0.5,1.1c-0.3,0.7-0.6,1.5-0.9,2.3c-0.5,1.6-0.9,3.2-1.2,4.8c-0.3,1.6-0.4,3.3-0.5,5
		c0,0.8,0,1.7,0,2.5l0.1,2.5l0.3,6.2l-4.8-3.8c-1-0.8-2.1-1.6-3.1-2.5l-1.5-1.3c-0.5-0.4-1-0.8-1.5-1.3l-2.9-2.7l-1.4-1.4
		c-0.5-0.5-0.9-1-1.3-1.5l-2.6-3c-0.9-1-1.6-2.1-2.4-3.1c-1.6-2.1-3.1-4.3-4.4-6.6c-2.6-4.6-4.7-9.5-6.2-14.5
		C395.7,621.6,394.8,616.3,395.3,611.1z"/>
	<path class="st10" d="M609.2,603c0.4,0.3,0.7,0.7,0.9,1.2c0.2,0.5,0.4,0.9,0.6,1.4c0.3,1,0.6,1.9,0.8,2.9c0.4,2,0.7,4,0.8,6
		c0.2,4,0.1,8-0.4,12c-0.9,8-3.1,15.8-6.4,23.1c-3.3,7.4-8,14.1-13.8,19.8c-5.7,5.6-12.7,9.8-20.4,12.2c6.4-4.2,12.2-9.4,17.1-15.3
		c4.8-5.8,8.8-12.2,11.9-19.1c3.1-6.9,5.5-14.1,7.2-21.5c0.9-3.7,1.5-7.5,2-11.3c0.2-1.9,0.4-3.8,0.5-5.7c0-1,0-1.9-0.1-2.9
		c0-0.5-0.1-1-0.2-1.4C609.6,603.9,609.5,603.5,609.2,603z"/>
	<path class="st7" d="M339.7,529.4c15.9,31.4,5.2,51.8,25.2,89c-5-20.8,1.7-39.9,1.7-39.9s7.1,39.1,17.8,64.4
		c5.2,16.8,50,44,74.2,58.1c-2.1-10.4-1.6-21.1,1.7-31.2c0,0,8.5,35.4,25.7,45.6c9.6,5.4,21.6,8.5,25.2,8.5c3.6,0,24.7-8.3,36.5-39
		c4,6.6,5.9,14.3,5.7,22c15.9-8.6,38.2-18.4,51.9-34.1c18.9-24.8,18.9-68.6,18.9-68.6s11.8,16.4,7.5,45.3
		c44.2-48.9,38.9-102.5,51.2-125.7"/>
	<path class="st9" d="M677.7,526c0.2,0.4,0.5,0.7,0.8,0.9c0.5,0.3,1,0.5,1.5,0.5c0.4,0,0.8-0.1,1.2-0.2l0,0h-0.1l-0.1,0.1l-0.3,0.2
		l-0.7,0.4l-1.4,0.7c-1,0.5-1.9,1-2.9,1.4c-1.9,0.9-3.9,1.8-5.8,2.7s-3.9,1.7-5.9,2.6c-2,0.8-4,1.6-6.1,2.3c-1,0.4-2.1,0.7-3.1,1
		c-1.1,0.3-2.3,0.6-3.4,0.8c-0.3,0.1-0.6,0.1-0.8,0.1l-0.8,0.1c-0.5,0.1-1.1,0.1-1.6,0.2c-1.1,0.1-2.1,0.2-3.2,0.3
		c-4.3,0.4-8.7,0.3-13-0.3c4.2-1.1,8.3-2.1,12.4-3.1l6.2-1.4c0.9-0.3,1.8-0.6,2.7-1c0.9-0.4,1.9-0.8,2.9-1.2
		c1.9-0.9,3.8-1.8,5.7-2.7c1.9-0.9,3.8-1.9,5.7-2.8l5.7-2.9l2.9-1.4l1.4-0.7l0.7-0.3l0.4-0.2l0.2-0.1l0.1-0.1h0
		c1.3-0.6,2.9-0.1,3.7,1.1l1.5,2.4l-5.1,3L677.7,526z"/>
	<path class="st21" d="M655.6,446.7v9.2c1.1,6.1,0.6,12.3-1.4,18.1c-0.7,1.9-1.5,3.7-2.5,5.5c-2.4,6.2-8.8,11.3-15.3,13.4
		c-10,2.9-22.2,1.4-30.1-6.4c-10-10.7-8.6-26.5-8.9-39.8"/>
	<path class="st21" d="M421.5,446.5c1.7,19.1-1.2,45.6-25.9,48.1c-1.9,0.2-3.9,0.2-5.8,0c-5.8-0.5-11.4-2.6-16.1-6.1
		c-12.9-10.7-10-27.9-10-42"/>
	<path class="st22" d="M551.8,544.4c-2.6,0-3.8-0.9-11.2-7.7c-5.4-5-9-7.4-13.5-8.2c-5.6-1-11.3-0.6-17.4,5.5
		c-6.1-6.1-11.8-6.4-17.4-5.5c-4.5,0.8-8.2,3.2-13.5,8.2c-7.3,6.8-8.6,7.7-11.2,7.7c-0.7,0-1.3,0.6-1.3,1.3c0,0.3,0.1,0.7,0.4,0.9
		c12.5,12.5,26.9,18.8,43.1,18.8c16.2,0,30.5-6.3,43.1-18.8c0.5-0.5,0.5-1.3,0-1.9C552.4,544.5,552.1,544.4,551.8,544.4z"/>
	<path class="st23" d="M552.5,546.8l-0.4-1.6c-50.5,11.5-84.6,0.4-84.6,0.4l-1.3-0.2c-0.1,0.4,0,0.9,0.3,1.2
		c12.5,12.5,26.9,18.8,43.1,18.8C525.7,565.5,540,559.2,552.5,546.8z"/>
	<path class="st9" d="M495,550.1c9.6-0.7,19.1-1,28.6-2.1c4.7-0.5,9.4-1.2,14.1-2c4.7-0.8,9.3-1.7,14-2.7l1,4.2
		c-4.7,1.1-9.5,2-14.3,2.7c-4.8,0.7-9.6,1.2-14.4,1.5c-4.8,0.3-9.7,0.4-14.5,0.2C504.5,551.6,499.7,551,495,550.1z"/>
	<path class="st9" d="M468.1,543.6c1.2,0.3,2.6,0.7,3.9,1.1s2.6,0.8,3.9,1.2c1.3,0.4,2.6,0.8,4,1.3c1.4,0.5,2.7,1.1,3.9,1.9
		c-1.4,0.4-2.9,0.6-4.3,0.6c-1.4,0-2.8-0.1-4.2-0.2s-2.8-0.3-4.2-0.6c-1.4-0.3-2.8-0.6-4.2-1.1L468.1,543.6z"/>
	<path class="st18" d="M551.8,544.4c-2.6,0-3.8-0.9-11.2-7.7c-5.4-5-9-8.1-13.5-8.2c-8-0.2-13.7,4.4-17.7,4.4c-4,0-7.5-5.4-17.2-4.4
		c-4.5,0.5-8.2,3.2-13.5,8.2c-7.3,6.8-8.6,7.7-11.2,7.7c-0.7,0-1.3,0.6-1.3,1.3c0,0.3,0.1,0.7,0.4,0.9
		c12.5,12.5,26.9,18.8,43.1,18.8c16.2,0,30.5-6.3,43.1-18.8c0.5-0.5,0.5-1.3,0-1.9C552.4,544.5,552.1,544.4,551.8,544.4z"/>
	<path class="st10" d="M527.1,533c-3,0.3-5.9,1-8.7,2.1c-1.4,0.6-2.8,1.1-4.2,1.7c-1.5,0.7-3,1.1-4.6,1.2c-0.9,0-1.7-0.1-2.5-0.5
		c-0.7-0.3-1.5-0.6-2.1-1c-1.3-0.7-2.6-1.4-4-2c-1.4-0.6-2.8-1-4.3-1.2c-1.5-0.2-3-0.4-4.5-0.4c1.5-0.3,3-0.4,4.6-0.3
		c1.6,0.1,3.1,0.4,4.6,0.9c1.5,0.5,2.9,1.1,4.2,1.9c1.3,0.7,2.7,1.3,4,1.2c1.4-0.1,2.8-0.5,4.2-1.1c1.4-0.5,2.9-1.1,4.3-1.5
		C520.9,533,524,532.6,527.1,533z"/>
	<path class="st9" d="M490.2,551.5c2.3,0,2.3-3.6,0-3.6S487.9,551.5,490.2,551.5z"/>
	<path class="st19" d="M509.8,251.3c-97.2,0-177.4,72.6-189.5,166.5c21.3-20,38.4-44.1,50.2-70.8c45.7,10,92.4,15.1,139.2,15.1
		c46.8,0,93.5-5.1,139.2-15.1c11.9,26.7,29,50.8,50.2,70.8C687.2,323.9,607,251.3,509.8,251.3z"/>
	<path class="st20" d="M370.6,347c7.6,1.6,15.3,3.2,23,4.5c7.6-25.4,19.5-52.9,36.6-82.8l0,0c-1,0.4-1.9,0.9-2.9,1.3l-0.1,0.1
		c-0.9,0.5-1.9,0.9-2.8,1.4l-0.4,0.2c-0.9,0.4-1.7,0.9-2.6,1.3l-0.7,0.4c-2.7,1.4-5.4,2.9-8,4.5l-0.6,0.3l-0.1,0.1
		c-0.8,0.5-1.6,1-2.4,1.5l-0.6,0.4c-2.6,1.6-5.1,3.3-7.6,5l-0.8,0.5c-0.7,0.5-1.4,1-2.1,1.5l-0.5,0.4l-0.1,0.1
		c-1.6,1.1-3.1,2.3-4.6,3.5l-0.4,0.3c-0.7,0.6-1.4,1.1-2.1,1.7l-0.8,0.7l-1.7,1.4l-0.6,0.5c-1.5,1.2-2.9,2.5-4.3,3.7l-0.8,0.7
		l-1.9,1.8l-0.9,0.8c-2,1.9-4,3.9-6,5.9l-0.7,0.7c-0.2,0.2-0.3,0.3-0.5,0.5c-0.5,0.5-1,1-1.5,1.6c-0.3,0.4-0.7,0.7-1,1.1
		c-1,1.1-2,2.1-2.9,3.2l-0.3,0.4c-0.2,0.3-0.5,0.5-0.7,0.8l-1.5,1.7c-0.1,0.1-0.2,0.2-0.2,0.3l-0.9,1c-0.4,0.5-0.9,1-1.3,1.6
		c-0.3,0.3-0.6,0.7-0.8,1l-0.5,0.6c-0.8,1-1.5,1.9-2.2,2.9l-0.1,0.1c-0.4,0.5-0.8,1-1.1,1.5c-0.3,0.4-0.6,0.8-0.8,1.1l-0.7,1
		l-0.9,1.2l-0.7,1l-1,1.4c-0.4,0.6-0.8,1.2-1.2,1.7c-0.4,0.6-0.8,1.2-1.2,1.8l-0.2,0.3l-1.1,1.7l-1.2,1.9c-0.4,0.6-0.7,1.2-1.1,1.8
		l0,0c-0.4,0.7-0.8,1.3-1.2,2s-0.7,1.2-1.1,1.8c-0.3,0.6-0.7,1.1-1,1.7l-0.4,0.7l-0.8,1.4c-0.3,0.6-0.6,1.1-0.9,1.6
		c-0.1,0.2-0.2,0.4-0.3,0.5c-0.3,0.6-0.6,1.1-0.9,1.7s-0.5,0.9-0.7,1.4l-0.6,1.2l-0.7,1.3c-0.3,0.6-0.6,1.1-0.8,1.7l-0.6,1.2
		l-0.2,0.5c-0.3,0.7-0.6,1.3-0.9,2l-0.5,1.1c-0.3,0.7-0.6,1.3-0.9,2l-0.7,1.7c-0.3,0.8-0.6,1.5-0.9,2.3c-0.2,0.6-0.5,1.1-0.7,1.6
		c-0.1,0.2-0.2,0.4-0.2,0.6c-0.3,0.6-0.5,1.3-0.7,1.9s-0.4,1.1-0.6,1.7l-0.1,0.3c-0.3,0.7-0.5,1.4-0.8,2.2s-0.5,1.3-0.7,1.9
		c-0.3,0.8-0.5,1.5-0.8,2.3c-0.2,0.7-0.4,1.3-0.6,2c-0.3,0.8-0.5,1.6-0.7,2.3c-0.2,0.7-0.4,1.3-0.6,2c-0.2,0.8-0.5,1.6-0.7,2.4
		c-0.2,0.7-0.4,1.3-0.5,2c-0.2,0.8-0.4,1.6-0.6,2.4c-0.2,0.7-0.3,1.3-0.5,2c-0.2,0.8-0.4,1.6-0.6,2.4c-0.2,0.7-0.3,1.3-0.4,2
		c-0.2,0.8-0.4,1.6-0.5,2.5c-0.1,0.7-0.3,1.3-0.4,2c-0.1,0.7-0.3,1.4-0.4,2.1l-0.1,0.7l-0.2,1.4c-0.1,0.8-0.3,1.6-0.4,2.4
		c0,0.2-0.1,0.3-0.1,0.5c-0.2,1.4-0.4,2.9-0.6,4.3C341.6,397.8,358.7,373.7,370.6,347z"/>
	<path class="st7" d="M509.8,251.3c-97.2,0-177.4,72.6-189.5,166.5c21.3-20,38.4-44.1,50.2-70.8c45.7,10,92.4,15.1,139.2,15.1
		c46.8,0,93.5-5.1,139.2-15.1c11.9,26.7,29,50.8,50.2,70.8C687.2,323.9,607,251.3,509.8,251.3z"/>
	<path class="st10" d="M514.3,263.4c-9,1.2-17.9,2.4-26.6,4.1s-17.4,3.7-25.9,6.2s-16.9,5.4-25.2,8.6c-8.3,3.3-16.4,7-24.7,10.8
		c7-5.8,14.7-10.8,22.8-14.9c16.3-8.3,34.1-13.4,52.3-15.2C496.1,262.2,505.2,262.3,514.3,263.4z"/>
	<path class="st9" d="M582.1,414.1c7.9-2,15.9-3.6,24-4.8l-1.9,0.3c9.4-1.2,19-1.6,28.5-0.3l-1.9-0.3c2.3,0.3,4.7,0.7,7,1l-1.9-0.3
		c7.1,1,14.2,2.4,21.1,4.4c3.6,1,7.9-1.2,8.8-5c1-3.8-1.2-7.7-5-8.8c-8.1-2.2-16.4-3.8-24.8-4.9l1.9,0.3c-7.9-1.4-15.9-1.9-24-1.4
		c-8,0.5-15.9,1.6-23.7,3.3c-4,0.8-8,1.7-12,2.7c-3.6,0.9-6.2,5.2-5,8.8C574.3,412.9,578.2,415.1,582.1,414.1L582.1,414.1z"/>
	<path class="st9" d="M356.6,414.2c6.9-2,13.9-3.5,20.9-4.4l-1.9,0.3c12.2-1.6,24.6-1.6,36.8,0.1l-1.9-0.3c7.1,1,14.2,2.4,21.1,4.4
		c3.6,1,8-1.2,8.8-5c1-3.8-1.2-7.7-5-8.8c-10.3-2.9-20.9-4.7-31.7-5.5c-17.2-1.1-34.5,0.7-51,5.5c-1.8,0.5-3.3,1.7-4.3,3.3
		c-1,1.7-1.2,3.7-0.7,5.5C349,412.8,352.7,415.3,356.6,414.2L356.6,414.2z"/>
	<g transform="scale(1)">
		
			<ellipse transform="matrix(0.3827 -0.9239 0.9239 0.3827 129.1049 586.8409)" class="st3" cx="503.7" cy="196.8" rx="34" ry="34"/>
		<path class="st24" d="M503.7,230.8c18.8,0,34-15.2,34-34c0-2.4-0.2-4.7-0.7-7.1c-22-3.4-44.9-1.4-67.2,4.3
			c-0.1,0.9-0.1,1.8-0.1,2.7C469.7,215.6,484.9,230.8,503.7,230.8C503.7,230.8,503.7,230.8,503.7,230.8z"/>
		
			<ellipse transform="matrix(0.3827 -0.9239 0.9239 0.3827 129.1049 586.8409)" class="st7" cx="503.7" cy="196.8" rx="34" ry="34"/>
		<path class="st3" d="M323.8,387.3c0-13.9,1.6-27.7,4.7-41.2c0.6-2.6,1.3-5.3,2-7.9c2.1-23.1,14.3-42.2,30.7-59.3
			c3.4-2.7,4.1-8.9,7.5-12.3c11.6-10.2,21.8-20.4,34.8-28.6c53.2-34.1,123.4-52.5,179.9-21.1c11.6,6.1,24.5,9.5,34.1,17.7
			c18.4,15.7,31.3,34.1,49.8,49.1c16.4,13.6,19.1,35.4,24.9,54.5c0.7,2.6,1.4,5.2,2,7.9c3.1,13.5,4.7,27.3,4.7,41.2L323.8,387.3z"/>
		<path class="st24" d="M328.5,346.1c-3.1,13.5-4.7,27.3-4.7,41.2h59.4c-1.1-57.8-15.9-106,59.3-164.8
			C388.5,243,339.4,287.9,328.5,346.1z"/>
		<path class="st24" d="M336.6,314.3c-3.3,7.6-5.4,15.7-6.1,24c-0.7,2.6-1.4,5.2-2,7.9c-3.1,13.5-4.7,27.3-4.7,41.2h143.3
			c30.4-2.4,61-2.4,91.4,0h140.3c0-13.9-1.6-27.7-4.7-41.2c-0.6-2.6-1.3-5.3-2-7.9c-2.5-8.1-4.4-16.8-7.1-25.1
			C569.1,270.3,451.8,271.2,336.6,314.3z"/>
		<path class="st7" d="M323.8,387.3c0-13.9,1.6-27.7,4.7-41.2c0.6-2.6,1.3-5.3,2-7.9c2.1-23.1,14.3-42.2,30.7-59.3
			c3.4-2.7,4.1-8.9,7.5-12.3c11.6-10.2,21.8-20.4,34.8-28.6c53.2-34.1,123.4-52.5,179.9-21.1c11.6,6.1,24.5,9.5,34.1,17.7
			c18.4,15.7,31.3,34.1,49.8,49.1c16.4,13.6,19.1,35.4,24.9,54.5c0.7,2.6,1.4,5.2,2,7.9c3.1,13.5,4.7,27.3,4.7,41.2L323.8,387.3z"/>
		<path class="st3" d="M313.1,339.5c131.4-55.9,265.8-56.6,398.2,0c12.6,5.4,12.5,100.2,0,95.8c-129.3-45-266-45.5-398.2,0
			C297.4,440.8,298.9,345.6,313.1,339.5z"/>
		<path class="st9" d="M689.8,402.1c0.6,2.3,0.9,4.7,1,7.1c0.1,2.3-0.1,4.7-0.2,7l-0.3,3.5c-0.1,1.2-0.2,2.3-0.4,3.5
			c-0.3,2.3-0.6,4.6-1.1,6.9l-5.6-1c0.3-2.3,0.7-4.5,1.2-6.8l0.7-3.4l0.7-3.4c0.5-2.2,1-4.5,1.6-6.7
			C688,406.4,688.8,404.2,689.8,402.1z"/>
		<path class="st9" d="M688.8,329.5c1.1,4.5,2,9,2.6,13.6c0.3,2.3,0.6,4.6,0.8,6.9c0.2,2.3,0.4,4.6,0.5,6.9c0.2,4.6,0.3,9.2,0,13.8
			c-0.2,4.6-0.8,9.2-1.8,13.7c-0.7-4.6-1.2-9.1-1.7-13.6c-0.5-4.5-0.9-9-1.5-13.5c-0.3-2.2-0.6-4.5-0.9-6.7
			c-0.3-2.2-0.7-4.4-1.1-6.6c-0.8-4.4-1.6-8.8-2.6-13.2L688.8,329.5z"/>
		<path class="st18" d="M630.7,314.9c5.4,30.7,4.8,64.1,0,99.4"/>
		<path class="st18" d="M580.1,304.6c3.7,30.7,3.3,64.1,0,99.4"/>
		<path class="st9" d="M534.1,339.6c0.9,4.9,1.4,9.8,1.7,14.8c0.3,4.9,0.4,9.9,0.5,14.8v7.4c0,2.5,0,4.9-0.1,7.4
			c-0.1,4.9-0.3,9.9-0.6,14.8l-5.7-0.3c0.2-4.9,0.4-9.8,0.7-14.7l0.9-14.7c0.3-4.9,0.6-9.8,1-14.8S533.2,344.5,534.1,339.6z"/>
		<path class="st9" d="M535.6,299c0.1,1.5,0.2,3,0.2,4.5c0,0.8,0,1.5-0.1,2.3l-0.1,2.3c-0.1,1.5-0.2,3-0.5,4.6
			c-0.3,1.6-0.8,3.1-1.5,4.6c-0.9-1.4-1.5-2.9-1.9-4.4c-0.4-1.5-0.7-3-0.9-4.5l-0.4-2.2c-0.1-0.8-0.2-1.5-0.3-2.2
			c-0.2-1.5-0.3-3-0.3-4.5L535.6,299z"/>
		<path class="st18" d="M486.7,298.9c0.3,30.8,0.2,64.2,0,99.6"/>
		<path class="st18" d="M440.6,303.6c-1.5,30.8-1.3,64.3,0,99.6"/>
		<path class="st9" d="M390.5,364.8c0.9,4,1.5,8,1.9,12c0.5,4,0.8,8,1.2,12l1.1,12c0.3,4,0.7,8,0.9,12l-5.7,0.5
			c-0.4-4-0.7-8.1-0.8-12.1c-0.1-2-0.1-4-0.2-6.1l-0.1-6.1c0-4,0-8.1,0.3-12.1C389.2,372.8,389.7,368.8,390.5,364.8z"/>
		<path class="st9" d="M395.6,313.6c-0.2,2.6-0.5,5.2-0.8,7.8l-0.5,3.9l-0.5,3.9c-0.4,2.6-0.7,5.2-1.1,7.8c-0.4,2.7-1.1,5.3-2,7.8
			c-0.7-2.6-1.2-5.3-1.4-8c-0.2-2.7-0.2-5.3-0.3-8v-4c0-1.3,0.1-2.7,0.1-4c0.1-2.7,0.4-5.3,0.7-7.9L395.6,313.6z"/>
		<path class="st18" d="M341.4,328.1c-4.9,30.8-4.4,64.4,0,99.8"/>
		<path class="st9" d="M691.1,395.5c1.5,0,2.7-1.2,2.7-2.7s-1.2-2.7-2.7-2.7c-1.5,0-2.7,1.2-2.7,2.7
			C688.4,394.3,689.6,395.5,691.1,395.5z"/>
		<path class="st25" d="M694.8,328.8c7.2,30.7,6.3,64.1,0,99.3"/>
		<path class="st25" d="M639.5,313.5c5.4,30.7,4.8,64.1,0,99.4"/>
		<path class="st25" d="M588.9,303c3.7,30.7,3.3,64.1,0,99.4"/>
		<path class="st25" d="M541.4,297.6c2,30.7,1.7,64.2,0,99.5"/>
		<path class="st25" d="M495.4,297.1c0.2,30.8,0.2,64.2,0,99.6"/>
		<path class="st25" d="M449.2,301.7c-1.5,30.8-1.3,64.3,0,99.6"/>
		<path class="st25" d="M401.2,311.3c-3.2,30.8-2.9,64.3,0,99.7"/>
		<path class="st25" d="M349.9,326.1c-4.9,30.8-4.4,64.4,0,99.8"/>
		<path class="st7" d="M313.1,339.5c131.4-55.9,265.8-56.6,398.2,0c12.6,5.4,12.5,100.2,0,95.8c-129.3-45-266-45.5-398.2,0
			C297.4,440.8,298.9,345.6,313.1,339.5z"/>
		<path class="st9" d="M457.4,287.5c9.1-1.9,18.4-3.3,27.7-4.1c2.3-0.2,4.6-0.4,7-0.6l7-0.4c2.3-0.1,4.7-0.1,7-0.2l7-0.1
			c9.3,0,18.7,0.5,27.9,1.3c9.3,0.8,18.5,2.2,27.6,4.2c-9.3-0.2-18.6-0.6-27.8-0.8c-9.2-0.2-18.5-0.4-27.8-0.4H506
			c-2.3,0-4.6,0.1-6.9,0.1l-6.9,0.1c-2.3,0.1-4.6,0.1-6.9,0.1C476,287,466.7,287.3,457.4,287.5z"/>
		<path class="st10" d="M400.5,251.7c5.1-4,10.4-7.7,16-11c5.6-3.3,11.3-6.3,17.2-9.1c1.4-0.7,3-1.3,4.4-2c1.5-0.7,3-1.3,4.5-1.9
			c3-1.2,6-2.4,9.1-3.4c6.1-2.2,12.3-4,18.7-5.4c-1.5,0.7-3,1.3-4.5,1.9c-1.5,0.6-3,1.2-4.5,1.8c-3,1.2-6,2.4-8.9,3.7l-2.2,1
			c-0.7,0.3-1.5,0.6-2.2,0.9l-4.4,2c-1.5,0.6-2.9,1.3-4.4,2c-1.5,0.7-2.9,1.3-4.4,2l-4.4,2c-1.4,0.7-2.9,1.4-4.3,2.1
			c-2.9,1.4-5.7,2.9-8.6,4.3C411.8,245.6,406.1,248.6,400.5,251.7z"/>
	</g>
	<circle class="st26" cx="394.4" cy="477.1" r="66.8"/>
	<path class="st27" d="M684.9,518.9c-23,33.7-69.1,42.4-102.8,19.4c-18.8-12.8-30.6-33.6-32.1-56.2c-26.5-10.5-53.3-10.4-81.8,0.3
		c-2.7,38.7-34.9,68.8-73.8,68.8c-23.3,0-54.4-26.1-50.9-20.3c10,14.8,33.7,26.1,52,26.1c39.1,0,70.1-28.1,72.7-66.6
		c28.5-10.6,55.3-10.7,81.8-0.3c2.5,38.5,34.7,67,73.8,67C655.9,557.1,674.1,532.6,684.9,518.9z"/>
	<path class="st28" d="M380.9,548.9l88.1-88.2c-1.9-4.4-4.3-8.5-7.2-12.4l-93.4,93.4C372.4,544.6,376.5,547,380.9,548.9z"/>
	<circle class="st29" cx="394.4" cy="477.1" r="66.8"/>
	<circle class="st29" cx="623.8" cy="477.1" r="66.8"/>
	<path class="st29" d="M461.7,477.1c32.4-13.1,64.2-13.6,95.4,0"/>
	<path class="st10" d="M377.1,437c1.5,4.7-4.3,8.2-8.6,9c-4.3,0-7.2-2.9-8.6-6.4c-0.7-3.6,0-7.2,2.9-9.3c3.6-1.4,8.6-2.9,11.8,0.8
		C376.2,432.6,377.1,434.7,377.1,437z"/>
	<path class="st10" d="M384.7,434.3c-0.4,3.1-4.7,3.1-5.5,0.2c0-2.1,0.7-2.9,2.8-2.9C383.5,431.6,384.7,432.8,384.7,434.3
		C384.7,434.3,384.7,434.3,384.7,434.3z"/>
	<circle class="st26" cx="623.8" cy="477.1" r="66.8"/>
	<path class="st28" d="M613.8,543.2l76.1-76.1c-0.4-2.7-1-5.4-1.7-8l-82.4,82.4C608.4,542.2,611.1,542.8,613.8,543.2z"/>
	<circle class="st29" cx="623.8" cy="477.1" r="66.8"/>
	<path class="st10" d="M606.5,437c1.5,4.7-4.3,8.2-8.6,9c-4.3,0-7.2-2.9-8.6-6.4c-0.7-3.6,0-7.2,2.9-9.3c3.6-1.4,8.6-2.9,11.8,0.8
		C605.6,432.6,606.5,434.7,606.5,437z"/>
	<path class="st10" d="M614.2,434.3c-0.4,3.1-4.7,3.1-5.5,0.2c0-2.1,0.7-2.9,2.8-2.9C613,431.6,614.2,432.8,614.2,434.3z"/>
</g>
</svg>
