<svg width="540" height="129" viewBox="0 0 540 129" fill="none" xmlns="http://www.w3.org/2000/svg">
<g filter="url(#filter0_d)">
<path d="M95.014 88.108C92.606 85.7 90.5707 83.6647 88.908 82.002C87.3027 80.282 85.7547 78.648 84.264 77.1C82.8307 75.552 81.3113 73.9467 79.706 72.284C78.1007 70.6213 76.1227 68.6433 73.772 66.35C73.084 65.662 72.482 65.0887 71.966 64.63C71.45 64.1713 71.2207 63.6267 71.278 62.996C71.3927 62.136 71.7367 61.534 72.31 61.19C72.8833 60.7887 73.428 60.3873 73.944 59.986C74.7467 59.3553 75.7213 58.4093 76.868 57.148C78.072 55.8293 79.3333 54.396 80.652 52.848C82.028 51.3 83.404 49.6947 84.78 48.032C86.2133 46.312 87.532 44.7353 88.736 43.302C89.9973 41.8687 91.0867 40.6647 92.004 39.69C92.9787 38.658 93.6953 38.0273 94.154 37.798C94.6127 37.5687 95.0713 37.54 95.53 37.712C95.9887 37.8267 96.3327 37.97 96.562 38.142C96.906 38.4287 97.1927 38.8587 97.422 39.432C97.7087 39.948 97.6227 40.636 97.164 41.496C96.992 41.84 96.648 42.3273 96.132 42.958C95.6733 43.5313 95.1287 44.1907 94.498 44.936C93.9247 45.6813 93.294 46.4553 92.606 47.258C91.9753 48.0033 91.402 48.6627 90.886 49.236C88.8793 51.472 86.7867 53.8513 84.608 56.374C82.4867 58.8967 80.4227 61.2473 78.416 63.426C79.8493 64.9167 81.426 66.5507 83.146 68.328C84.9233 70.1053 86.7293 71.9113 88.564 73.746C90.3987 75.5807 92.2047 77.444 93.982 79.336C95.7593 81.1707 97.422 82.8907 98.97 84.496C99.314 84.8973 99.5433 85.356 99.658 85.872C99.83 86.3307 99.658 86.8467 99.142 87.42C98.454 88.1653 97.7087 88.5953 96.906 88.71C96.1607 88.8247 95.53 88.624 95.014 88.108ZM111.027 79.336C110.74 80.3107 110.367 81.1993 109.909 82.002C109.45 82.7473 108.963 83.1773 108.447 83.292C107.357 83.5787 106.526 83.4067 105.953 82.776C105.379 82.1453 105.15 81.3427 105.265 80.368C105.723 76.928 106.469 73.316 107.501 69.532C108.533 65.6907 109.737 61.878 111.113 58.094C112.489 54.2527 113.979 50.5547 115.585 47C117.247 43.388 118.939 40.12 120.659 37.196C120.945 36.7373 121.261 36.4793 121.605 36.422C122.006 36.3073 122.35 36.3073 122.637 36.422C122.923 36.1927 123.267 35.992 123.669 35.82C124.07 35.648 124.471 35.562 124.873 35.562C125.045 35.562 125.217 35.5907 125.389 35.648C125.618 35.7053 125.847 35.8773 126.077 36.164C126.306 36.4507 126.564 36.8807 126.851 37.454C127.195 37.97 127.596 38.744 128.055 39.776C128.857 42.7 129.775 45.71 130.807 48.806C131.896 51.902 133.014 54.998 134.161 58.094C134.333 58.0367 134.476 58.008 134.591 58.008C134.763 57.9507 134.935 57.8933 135.107 57.836C135.737 57.7787 136.454 57.8073 137.257 57.922C138.059 58.0367 138.604 58.438 138.891 59.126C139.235 59.986 139.177 60.7313 138.719 61.362C138.26 61.9927 137.429 62.6233 136.225 63.254C136.97 65.0887 137.715 66.8947 138.461 68.672C139.206 70.392 139.98 72.0833 140.783 73.746C140.84 74.0327 140.926 74.4913 141.041 75.122C141.155 75.6953 141.213 76.2973 141.213 76.928C141.27 77.5013 141.241 78.046 141.127 78.562C141.012 79.078 140.783 79.422 140.439 79.594C140.037 79.766 139.607 79.7373 139.149 79.508C138.747 79.2787 138.346 78.992 137.945 78.648C137.543 78.2467 137.171 77.8453 136.827 77.444C136.54 76.9853 136.311 76.584 136.139 76.24C135.164 74.348 134.218 72.456 133.301 70.564C132.441 68.6147 131.609 66.6653 130.807 64.716C128.399 65.1747 125.761 65.576 122.895 65.92C120.085 66.264 117.305 66.4933 114.553 66.608C113.922 68.7867 113.291 70.9367 112.661 73.058C112.087 75.122 111.543 77.2147 111.027 79.336ZM123.239 43.216C120.601 49.1213 118.308 55.0267 116.359 60.932C120.2 60.8173 124.299 60.33 128.657 59.47C126.593 54.2527 124.787 48.8347 123.239 43.216ZM152.303 50.87C152.475 51.73 152.647 52.7047 152.819 53.794C153.049 54.826 153.278 55.9153 153.507 57.062C153.737 58.1513 153.937 59.2693 154.109 60.416C154.281 61.5627 154.425 62.652 154.539 63.684C155.227 62.1933 155.973 60.6167 156.775 58.954C157.578 57.2913 158.438 55.772 159.355 54.396C160.33 52.9627 161.333 51.7873 162.365 50.87C163.455 49.9527 164.63 49.494 165.891 49.494C167.783 49.494 169.36 50.182 170.621 51.558C171.94 52.934 173.029 54.654 173.889 56.718C174.807 58.7247 175.523 60.846 176.039 63.082C176.555 65.318 176.985 67.296 177.329 69.016C177.673 70.564 176.985 71.7107 175.265 72.456C174.463 72.8573 173.861 72.9147 173.459 72.628C173.058 72.3413 172.829 72.0547 172.771 71.768C172.485 71.08 172.112 69.876 171.653 68.156C171.252 66.436 170.765 64.6873 170.191 62.91C169.675 61.1327 169.073 59.5847 168.385 58.266C167.697 56.9473 166.923 56.3453 166.063 56.46C165.031 56.5173 164.114 57.2913 163.311 58.782C162.623 59.986 161.907 61.3333 161.161 62.824C160.473 64.2573 159.785 65.748 159.097 67.296C158.409 68.7867 157.721 70.306 157.033 71.854C156.403 73.3447 155.801 74.7207 155.227 75.982C154.826 76.3833 154.31 76.67 153.679 76.842C153.106 76.9567 152.504 76.8993 151.873 76.67C151.3 76.498 150.841 76.2113 150.497 75.81C150.153 75.4087 149.981 75.0073 149.981 74.606C149.465 70.134 148.921 66.0633 148.347 62.394C147.831 58.7247 147.143 54.9693 146.283 51.128C145.882 49.8093 145.796 48.7773 146.025 48.032C146.312 47.2293 147.172 46.914 148.605 47.086C150.612 47.43 151.845 48.6913 152.303 50.87ZM209.909 52.16C210.081 55.256 210.253 58.3807 210.425 61.534C210.654 64.6873 210.711 67.812 210.597 70.908C210.482 73.9467 210.167 76.928 209.651 79.852C209.192 82.776 208.389 85.5853 207.243 88.28C206.096 90.9173 204.548 93.3827 202.599 95.676C200.707 97.9693 198.299 100.033 195.375 101.868C194.916 102.155 194.4 102.327 193.827 102.384C193.311 102.441 192.795 102.413 192.279 102.298C191.763 102.241 191.304 102.097 190.903 101.868C190.501 101.696 190.243 101.438 190.129 101.094C189.957 100.578 190.043 100.005 190.387 99.374C190.731 98.7433 191.304 98.084 192.107 97.396C194.629 95.504 196.751 93.4973 198.471 91.376C200.191 89.2547 201.567 86.9613 202.599 84.496C203.631 82.0307 204.29 79.3647 204.577 76.498C204.921 73.574 204.921 70.392 204.577 66.952C203.889 67.812 203.086 68.7007 202.169 69.618C201.251 70.5353 200.277 71.3667 199.245 72.112C198.213 72.8 197.152 73.402 196.063 73.918C194.973 74.3767 193.941 74.606 192.967 74.606C192.164 74.606 191.361 74.434 190.559 74.09C189.756 73.746 188.953 73.0867 188.151 72.112C187.233 70.908 186.402 69.5607 185.657 68.07C184.969 66.522 184.367 65.0313 183.851 63.598C183.335 62.1647 182.905 60.8747 182.561 59.728C182.274 58.5813 182.102 57.7787 182.045 57.32C181.93 56.7467 181.93 56.202 182.045 55.686C182.159 55.17 182.532 54.8547 183.163 54.74C184.023 54.568 184.825 54.6253 185.571 54.912C186.316 55.1987 186.832 55.6573 187.119 56.288C187.348 56.9187 187.663 57.8933 188.065 59.212C188.466 60.5307 188.953 61.8493 189.527 63.168C190.1 64.4293 190.702 65.5473 191.333 66.522C192.021 67.4967 192.737 67.984 193.483 67.984C194.343 67.984 195.346 67.554 196.493 66.694C197.697 65.834 198.843 64.716 199.933 63.34C201.022 61.964 201.939 60.4447 202.685 58.782C203.487 57.062 203.889 55.3993 203.889 53.794C203.889 53.45 203.946 53.0487 204.061 52.59C204.175 52.1313 204.347 51.7013 204.577 51.3C204.806 50.8413 205.064 50.4687 205.351 50.182C205.695 49.838 206.039 49.6373 206.383 49.58C207.3 49.4653 208.103 49.7233 208.791 50.354C209.536 50.9273 209.909 51.5293 209.909 52.16ZM238.998 59.04C236.762 60.3587 234.354 61.3907 231.774 62.136C229.194 62.824 226.413 63.168 223.432 63.168C223.547 65.1747 224.12 66.78 225.152 67.984C226.184 69.1307 227.474 69.8187 229.022 70.048C229.939 70.1627 230.857 70.134 231.774 69.962C232.749 69.79 233.637 69.532 234.44 69.188C235.3 68.7867 236.074 68.3567 236.762 67.898C237.45 67.4393 238.052 66.9807 238.568 66.522C239.084 66.0633 239.629 65.7767 240.202 65.662C240.775 65.49 241.205 65.4613 241.492 65.576C242.295 65.8627 242.581 66.7227 242.352 68.156C241.435 69.9907 240.116 71.5673 238.396 72.886C236.676 74.1473 234.755 74.95 232.634 75.294C230.799 75.638 228.907 75.552 226.958 75.036C225.009 74.52 223.26 73.5167 221.712 72.026C220.393 70.7073 219.39 69.1593 218.702 67.382C218.014 65.6047 217.584 63.77 217.412 61.878C217.24 60.1007 217.383 58.4093 217.842 56.804C218.358 55.1987 219.132 53.794 220.164 52.59C221.196 51.3287 222.486 50.2967 224.034 49.494C225.582 48.6913 227.388 48.2327 229.452 48.118C231.917 47.946 234.153 48.4047 236.16 49.494C238.167 50.5833 239.571 52.1027 240.374 54.052C240.833 55.1413 240.947 56.0873 240.718 56.89C240.546 57.6927 239.973 58.4093 238.998 59.04ZM229.108 53.192C228.535 53.3067 227.904 53.5073 227.216 53.794C226.585 54.0807 225.983 54.4533 225.41 54.912C224.894 55.3133 224.407 55.8007 223.948 56.374C223.547 56.89 223.317 57.492 223.26 58.18C224.235 58.18 225.295 58.094 226.442 57.922C227.646 57.75 228.793 57.5493 229.882 57.32C231.029 57.0333 232.061 56.718 232.978 56.374C233.953 56.03 234.755 55.6573 235.386 55.256C234.927 54.1667 234.067 53.5073 232.806 53.278C231.602 52.9913 230.369 52.9627 229.108 53.192ZM264.419 53.536C264.304 52.9053 264.189 52.3033 264.075 51.73C263.96 51.1567 263.673 50.784 263.215 50.612C262.24 50.3253 261.208 50.2967 260.119 50.526C259.029 50.7553 258.026 51.128 257.109 51.644C256.191 52.1027 255.417 52.6473 254.787 53.278C254.156 53.8513 253.812 54.3673 253.755 54.826C253.583 55.686 253.812 56.5173 254.443 57.32C255.073 58.1227 255.991 58.9253 257.195 59.728C259.201 60.932 261.294 62.1647 263.473 63.426C265.651 64.6873 267.486 65.9773 268.977 67.296C270.467 68.6147 271.471 70.0767 271.987 71.682C272.56 73.23 272.445 75.0073 271.643 77.014C271.012 78.562 269.837 79.8233 268.117 80.798C266.397 81.7727 264.505 82.5467 262.441 83.12C260.377 83.636 258.313 84.0087 256.249 84.238C254.185 84.41 252.436 84.496 251.003 84.496C250.659 84.496 250.229 84.3813 249.713 84.152C249.254 83.8653 248.795 83.55 248.337 83.206C247.935 82.862 247.563 82.518 247.219 82.174C246.932 81.7727 246.789 81.4287 246.789 81.142C246.789 80.11 247.247 79.3933 248.165 78.992C249.082 78.5907 250.028 78.39 251.003 78.39C252.379 78.39 253.841 78.3327 255.389 78.218C256.994 78.046 258.513 77.8167 259.947 77.53C261.38 77.186 262.67 76.756 263.817 76.24C264.963 75.724 265.766 75.0647 266.225 74.262C266.626 73.574 266.368 72.7713 265.451 71.854C264.591 70.8793 263.415 69.876 261.925 68.844C260.491 67.812 258.915 66.8087 257.195 65.834C255.532 64.8593 254.099 63.9707 252.895 63.168C251.691 62.3653 250.659 61.4193 249.799 60.33C248.939 59.1833 248.394 57.7787 248.165 56.116C248.107 54.6253 248.423 53.192 249.111 51.816C249.799 50.44 250.687 49.236 251.777 48.204C252.923 47.1147 254.213 46.2547 255.647 45.624C257.08 44.9933 258.513 44.678 259.947 44.678C262.412 44.7927 264.447 45.4807 266.053 46.742C267.658 47.946 268.604 49.752 268.891 52.16C268.891 52.9627 268.747 53.622 268.461 54.138C268.231 54.654 267.801 54.9693 267.171 55.084C266.368 55.1987 265.709 55.1127 265.193 54.826C264.734 54.482 264.476 54.052 264.419 53.536ZM283.499 41.152C283.499 42.528 283.47 44.076 283.413 45.796C283.413 47.516 283.413 49.2933 283.413 51.128C283.47 52.9627 283.499 54.8547 283.499 56.804C283.556 58.7533 283.614 60.6167 283.671 62.394C284.244 61.2473 284.932 60.1293 285.735 59.04C286.538 57.8933 287.426 56.89 288.401 56.03C289.433 55.17 290.494 54.482 291.583 53.966C292.73 53.45 293.962 53.192 295.281 53.192C296.714 53.192 297.976 53.6507 299.065 54.568C300.212 55.4853 301.186 56.718 301.989 58.266C302.849 59.7567 303.566 61.448 304.139 63.34C304.712 65.1747 305.171 67.0667 305.515 69.016C305.916 70.908 306.203 72.7427 306.375 74.52C306.547 76.24 306.69 77.7307 306.805 78.992C306.805 79.9093 306.576 80.6547 306.117 81.228C305.658 81.8013 305.114 82.088 304.483 82.088C304.024 82.088 303.451 81.8013 302.763 81.228C302.132 80.5973 301.674 79.852 301.387 78.992C301.215 78.304 301.043 77.3007 300.871 75.982C300.699 74.6633 300.498 73.2587 300.269 71.768C300.04 70.22 299.753 68.672 299.409 67.124C299.065 65.576 298.635 64.2 298.119 62.996C297.66 61.7347 297.087 60.76 296.399 60.072C295.711 59.384 294.908 59.126 293.991 59.298C292.558 59.5847 291.296 60.588 290.207 62.308C289.175 64.028 288.258 65.9773 287.455 68.156C286.71 70.3347 286.079 72.542 285.563 74.778C285.104 77.014 284.76 78.82 284.531 80.196C284.302 81.228 283.986 81.9447 283.585 82.346C283.241 82.69 282.84 82.862 282.381 82.862C281.922 82.862 281.492 82.6327 281.091 82.174C280.747 81.7153 280.403 81.1707 280.059 80.54C279.772 79.852 279.514 79.164 279.285 78.476C279.056 77.7307 278.912 77.1 278.855 76.584C278.568 73.488 278.339 70.5353 278.167 67.726C277.995 64.8593 277.852 61.9927 277.737 59.126C277.68 56.2593 277.651 53.3353 277.651 50.354C277.651 47.3153 277.708 44.076 277.823 40.636C277.823 37.7693 278.855 36.4793 280.919 36.766C281.607 36.8807 282.209 37.3967 282.725 38.314C283.241 39.174 283.499 40.12 283.499 41.152ZM342.784 82.174C342.555 82.862 342.297 83.55 342.01 84.238C341.723 84.926 341.379 85.528 340.978 86.044C340.634 86.56 340.233 86.9613 339.774 87.248C339.315 87.4773 338.828 87.506 338.312 87.334C337.624 87.2193 337.223 86.732 337.108 85.872C337.051 84.9547 337.165 84.066 337.452 83.206C337.853 81.83 338.427 80.024 339.172 77.788C339.975 75.4947 340.863 73.0007 341.838 70.306C342.87 67.6113 343.931 64.8307 345.02 61.964C346.167 59.04 347.256 56.2593 348.288 53.622C349.32 50.9847 350.266 48.6053 351.126 46.484C351.986 44.3053 352.645 42.614 353.104 41.41C353.276 41.066 353.534 40.7793 353.878 40.55C354.222 40.3207 354.566 40.206 354.91 40.206C355.311 40.206 355.684 40.3207 356.028 40.55C356.429 40.7793 356.745 41.152 356.974 41.668C357.433 42.872 357.461 44.0473 357.06 45.194C356.659 46.1113 356.085 47.5447 355.34 49.494C354.595 51.386 353.735 53.536 352.76 55.944C351.843 58.352 350.868 60.9033 349.836 63.598C348.804 66.2927 347.829 68.8727 346.912 71.338C345.995 73.746 345.163 75.9247 344.418 77.874C343.673 79.8233 343.128 81.2567 342.784 82.174ZM371.027 88.108C370.511 88.624 369.852 88.8247 369.049 88.71C368.304 88.5953 367.587 88.1653 366.899 87.42C366.383 86.8467 366.182 86.3307 366.297 85.872C366.469 85.356 366.727 84.8973 367.071 84.496C368.619 82.8907 370.282 81.1707 372.059 79.336C373.836 77.444 375.642 75.5807 377.477 73.746C379.312 71.9113 381.089 70.1053 382.809 68.328C384.586 66.5507 386.192 64.9167 387.625 63.426C385.618 61.2473 383.526 58.8967 381.347 56.374C379.226 53.8513 377.162 51.472 375.155 49.236C374.639 48.6627 374.037 48.0033 373.349 47.258C372.718 46.4553 372.088 45.6813 371.457 44.936C370.884 44.1907 370.339 43.5313 369.823 42.958C369.364 42.3273 369.049 41.84 368.877 41.496C368.418 40.636 368.304 39.948 368.533 39.432C368.82 38.8587 369.135 38.4287 369.479 38.142C369.708 37.97 370.052 37.8267 370.511 37.712C370.97 37.54 371.428 37.5687 371.887 37.798C372.346 38.0273 373.034 38.658 373.951 39.69C374.926 40.6647 376.015 41.8687 377.219 43.302C378.48 44.7353 379.799 46.312 381.175 48.032C382.608 49.6947 383.984 51.3 385.303 52.848C386.679 54.396 387.94 55.8293 389.087 57.148C390.291 58.4093 391.294 59.3553 392.097 59.986C392.613 60.3873 393.158 60.7887 393.731 61.19C394.304 61.534 394.648 62.136 394.763 62.996C394.82 63.6267 394.591 64.1713 394.075 64.63C393.559 65.0887 392.957 65.662 392.269 66.35C389.918 68.6433 387.94 70.6213 386.335 72.284C384.73 73.9467 383.182 75.552 381.691 77.1C380.258 78.648 378.71 80.282 377.047 82.002C375.442 83.6647 373.435 85.7 371.027 88.108Z" fill="white"/>
</g>
<defs>
<filter id="filter0_d" x="67.2695" y="35.562" width="331.502" height="74.8507" filterUnits="userSpaceOnUse" color-interpolation-filters="sRGB">
<feFlood flood-opacity="0" result="BackgroundImageFix"/>
<feColorMatrix in="SourceAlpha" type="matrix" values="0 0 0 0 0 0 0 0 0 0 0 0 0 0 0 0 0 0 127 0"/>
<feOffset dy="4"/>
<feGaussianBlur stdDeviation="2"/>
<feColorMatrix type="matrix" values="0 0 0 0 1 0 0 0 0 0.54 0 0 0 0 0 0 0 0 0.43 0"/>
<feBlend mode="normal" in2="BackgroundImageFix" result="effect1_dropShadow"/>
<feBlend mode="normal" in="SourceGraphic" in2="effect1_dropShadow" result="shape"/>
</filter>
</defs>
</svg>
