<svg width="335" height="129" viewBox="0 0 335 129" fill="none" xmlns="http://www.w3.org/2000/svg">
<g filter="url(#filter0_d)">
<path d="M30.014 88.108C27.606 85.7 25.5707 83.6647 23.908 82.002C22.3027 80.282 20.7547 78.648 19.264 77.1C17.8307 75.552 16.3113 73.9467 14.706 72.284C13.1007 70.6213 11.1227 68.6433 8.772 66.35C8.084 65.662 7.482 65.0887 6.966 64.63C6.45 64.1713 6.22067 63.6267 6.278 62.996C6.39267 62.136 6.73667 61.534 7.31 61.19C7.88333 60.7887 8.428 60.3873 8.944 59.986C9.74667 59.3553 10.7213 58.4093 11.868 57.148C13.072 55.8293 14.3333 54.396 15.652 52.848C17.028 51.3 18.404 49.6947 19.78 48.032C21.2133 46.312 22.532 44.7353 23.736 43.302C24.9973 41.8687 26.0867 40.6647 27.004 39.69C27.9787 38.658 28.6953 38.0273 29.154 37.798C29.6127 37.5687 30.0713 37.54 30.53 37.712C30.9887 37.8267 31.3327 37.97 31.562 38.142C31.906 38.4287 32.1927 38.8587 32.422 39.432C32.7087 39.948 32.6227 40.636 32.164 41.496C31.992 41.84 31.648 42.3273 31.132 42.958C30.6733 43.5313 30.1287 44.1907 29.498 44.936C28.9247 45.6813 28.294 46.4553 27.606 47.258C26.9753 48.0033 26.402 48.6627 25.886 49.236C23.8793 51.472 21.7867 53.8513 19.608 56.374C17.4867 58.8967 15.4227 61.2473 13.416 63.426C14.8493 64.9167 16.426 66.5507 18.146 68.328C19.9233 70.1053 21.7293 71.9113 23.564 73.746C25.3987 75.5807 27.2047 77.444 28.982 79.336C30.7593 81.1707 32.422 82.8907 33.97 84.496C34.314 84.8973 34.5433 85.356 34.658 85.872C34.83 86.3307 34.658 86.8467 34.142 87.42C33.454 88.1653 32.7087 88.5953 31.906 88.71C31.1607 88.8247 30.53 88.624 30.014 88.108ZM46.0268 79.336C45.7401 80.3107 45.3675 81.1993 44.9088 82.002C44.4501 82.7473 43.9628 83.1773 43.4468 83.292C42.3575 83.5787 41.5261 83.4067 40.9528 82.776C40.3795 82.1453 40.1501 81.3427 40.2648 80.368C40.7235 76.928 41.4688 73.316 42.5008 69.532C43.5328 65.6907 44.7368 61.878 46.1128 58.094C47.4888 54.2527 48.9795 50.5547 50.5848 47C52.2475 43.388 53.9388 40.12 55.6588 37.196C55.9455 36.7373 56.2608 36.4793 56.6048 36.422C57.0061 36.3073 57.3501 36.3073 57.6368 36.422C57.9235 36.1927 58.2675 35.992 58.6688 35.82C59.0701 35.648 59.4715 35.562 59.8728 35.562C60.0448 35.562 60.2168 35.5907 60.3888 35.648C60.6181 35.7053 60.8475 35.8773 61.0768 36.164C61.3061 36.4507 61.5641 36.8807 61.8508 37.454C62.1948 37.97 62.5961 38.744 63.0548 39.776C63.8575 42.7 64.7748 45.71 65.8068 48.806C66.8961 51.902 68.0141 54.998 69.1608 58.094C69.3328 58.0367 69.4761 58.008 69.5908 58.008C69.7628 57.9507 69.9348 57.8933 70.1068 57.836C70.7375 57.7787 71.4541 57.8073 72.2568 57.922C73.0595 58.0367 73.6041 58.438 73.8908 59.126C74.2348 59.986 74.1775 60.7313 73.7188 61.362C73.2601 61.9927 72.4288 62.6233 71.2248 63.254C71.9701 65.0887 72.7155 66.8947 73.4608 68.672C74.2061 70.392 74.9801 72.0833 75.7828 73.746C75.8401 74.0327 75.9261 74.4913 76.0408 75.122C76.1555 75.6953 76.2128 76.2973 76.2128 76.928C76.2701 77.5013 76.2415 78.046 76.1268 78.562C76.0121 79.078 75.7828 79.422 75.4388 79.594C75.0375 79.766 74.6075 79.7373 74.1488 79.508C73.7475 79.2787 73.3461 78.992 72.9448 78.648C72.5435 78.2467 72.1708 77.8453 71.8268 77.444C71.5401 76.9853 71.3108 76.584 71.1388 76.24C70.1641 74.348 69.2181 72.456 68.3008 70.564C67.4408 68.6147 66.6095 66.6653 65.8068 64.716C63.3988 65.1747 60.7615 65.576 57.8948 65.92C55.0855 66.264 52.3048 66.4933 49.5528 66.608C48.9221 68.7867 48.2915 70.9367 47.6608 73.058C47.0875 75.122 46.5428 77.2147 46.0268 79.336ZM58.2388 43.216C55.6015 49.1213 53.3081 55.0267 51.3588 60.932C55.2001 60.8173 59.2995 60.33 63.6568 59.47C61.5928 54.2527 59.7868 48.8347 58.2388 43.216ZM87.3034 50.87C87.4754 51.73 87.6474 52.7047 87.8194 53.794C88.0488 54.826 88.2781 55.9153 88.5074 57.062C88.7368 58.1513 88.9374 59.2693 89.1094 60.416C89.2814 61.5627 89.4248 62.652 89.5394 63.684C90.2274 62.1933 90.9728 60.6167 91.7754 58.954C92.5781 57.2913 93.4381 55.772 94.3554 54.396C95.3301 52.9627 96.3334 51.7873 97.3654 50.87C98.4548 49.9527 99.6301 49.494 100.891 49.494C102.783 49.494 104.36 50.182 105.621 51.558C106.94 52.934 108.029 54.654 108.889 56.718C109.807 58.7247 110.523 60.846 111.039 63.082C111.555 65.318 111.985 67.296 112.329 69.016C112.673 70.564 111.985 71.7107 110.265 72.456C109.463 72.8573 108.861 72.9147 108.459 72.628C108.058 72.3413 107.829 72.0547 107.771 71.768C107.485 71.08 107.112 69.876 106.653 68.156C106.252 66.436 105.765 64.6873 105.191 62.91C104.675 61.1327 104.073 59.5847 103.385 58.266C102.697 56.9473 101.923 56.3453 101.063 56.46C100.031 56.5173 99.1141 57.2913 98.3114 58.782C97.6234 59.986 96.9068 61.3333 96.1614 62.824C95.4734 64.2573 94.7854 65.748 94.0974 67.296C93.4094 68.7867 92.7214 70.306 92.0334 71.854C91.4028 73.3447 90.8008 74.7207 90.2274 75.982C89.8261 76.3833 89.3101 76.67 88.6794 76.842C88.1061 76.9567 87.5041 76.8993 86.8734 76.67C86.3001 76.498 85.8414 76.2113 85.4974 75.81C85.1534 75.4087 84.9814 75.0073 84.9814 74.606C84.4654 70.134 83.9208 66.0633 83.3474 62.394C82.8314 58.7247 82.1434 54.9693 81.2834 51.128C80.8821 49.8093 80.7961 48.7773 81.0254 48.032C81.3121 47.2293 82.1721 46.914 83.6054 47.086C85.6121 47.43 86.8448 48.6913 87.3034 50.87ZM144.909 52.16C145.081 55.256 145.253 58.3807 145.425 61.534C145.654 64.6873 145.711 67.812 145.597 70.908C145.482 73.9467 145.167 76.928 144.651 79.852C144.192 82.776 143.389 85.5853 142.243 88.28C141.096 90.9173 139.548 93.3827 137.599 95.676C135.707 97.9693 133.299 100.033 130.375 101.868C129.916 102.155 129.4 102.327 128.827 102.384C128.311 102.441 127.795 102.413 127.279 102.298C126.763 102.241 126.304 102.097 125.903 101.868C125.501 101.696 125.243 101.438 125.129 101.094C124.957 100.578 125.043 100.005 125.387 99.374C125.731 98.7433 126.304 98.084 127.107 97.396C129.629 95.504 131.751 93.4973 133.471 91.376C135.191 89.2547 136.567 86.9613 137.599 84.496C138.631 82.0307 139.29 79.3647 139.577 76.498C139.921 73.574 139.921 70.392 139.577 66.952C138.889 67.812 138.086 68.7007 137.169 69.618C136.251 70.5353 135.277 71.3667 134.245 72.112C133.213 72.8 132.152 73.402 131.063 73.918C129.973 74.3767 128.941 74.606 127.967 74.606C127.164 74.606 126.361 74.434 125.559 74.09C124.756 73.746 123.953 73.0867 123.151 72.112C122.233 70.908 121.402 69.5607 120.657 68.07C119.969 66.522 119.367 65.0313 118.851 63.598C118.335 62.1647 117.905 60.8747 117.561 59.728C117.274 58.5813 117.102 57.7787 117.045 57.32C116.93 56.7467 116.93 56.202 117.045 55.686C117.159 55.17 117.532 54.8547 118.163 54.74C119.023 54.568 119.825 54.6253 120.571 54.912C121.316 55.1987 121.832 55.6573 122.119 56.288C122.348 56.9187 122.663 57.8933 123.065 59.212C123.466 60.5307 123.953 61.8493 124.527 63.168C125.1 64.4293 125.702 65.5473 126.333 66.522C127.021 67.4967 127.737 67.984 128.483 67.984C129.343 67.984 130.346 67.554 131.493 66.694C132.697 65.834 133.843 64.716 134.933 63.34C136.022 61.964 136.939 60.4447 137.685 58.782C138.487 57.062 138.889 55.3993 138.889 53.794C138.889 53.45 138.946 53.0487 139.061 52.59C139.175 52.1313 139.347 51.7013 139.577 51.3C139.806 50.8413 140.064 50.4687 140.351 50.182C140.695 49.838 141.039 49.6373 141.383 49.58C142.3 49.4653 143.103 49.7233 143.791 50.354C144.536 50.9273 144.909 51.5293 144.909 52.16ZM173.998 59.04C171.762 60.3587 169.354 61.3907 166.774 62.136C164.194 62.824 161.413 63.168 158.432 63.168C158.547 65.1747 159.12 66.78 160.152 67.984C161.184 69.1307 162.474 69.8187 164.022 70.048C164.939 70.1627 165.857 70.134 166.774 69.962C167.749 69.79 168.637 69.532 169.44 69.188C170.3 68.7867 171.074 68.3567 171.762 67.898C172.45 67.4393 173.052 66.9807 173.568 66.522C174.084 66.0633 174.629 65.7767 175.202 65.662C175.775 65.49 176.205 65.4613 176.492 65.576C177.295 65.8627 177.581 66.7227 177.352 68.156C176.435 69.9907 175.116 71.5673 173.396 72.886C171.676 74.1473 169.755 74.95 167.634 75.294C165.799 75.638 163.907 75.552 161.958 75.036C160.009 74.52 158.26 73.5167 156.712 72.026C155.393 70.7073 154.39 69.1593 153.702 67.382C153.014 65.6047 152.584 63.77 152.412 61.878C152.24 60.1007 152.383 58.4093 152.842 56.804C153.358 55.1987 154.132 53.794 155.164 52.59C156.196 51.3287 157.486 50.2967 159.034 49.494C160.582 48.6913 162.388 48.2327 164.452 48.118C166.917 47.946 169.153 48.4047 171.16 49.494C173.167 50.5833 174.571 52.1027 175.374 54.052C175.833 55.1413 175.947 56.0873 175.718 56.89C175.546 57.6927 174.973 58.4093 173.998 59.04ZM164.108 53.192C163.535 53.3067 162.904 53.5073 162.216 53.794C161.585 54.0807 160.983 54.4533 160.41 54.912C159.894 55.3133 159.407 55.8007 158.948 56.374C158.547 56.89 158.317 57.492 158.26 58.18C159.235 58.18 160.295 58.094 161.442 57.922C162.646 57.75 163.793 57.5493 164.882 57.32C166.029 57.0333 167.061 56.718 167.978 56.374C168.953 56.03 169.755 55.6573 170.386 55.256C169.927 54.1667 169.067 53.5073 167.806 53.278C166.602 52.9913 165.369 52.9627 164.108 53.192ZM199.419 53.536C199.304 52.9053 199.189 52.3033 199.075 51.73C198.96 51.1567 198.673 50.784 198.215 50.612C197.24 50.3253 196.208 50.2967 195.119 50.526C194.029 50.7553 193.026 51.128 192.109 51.644C191.191 52.1027 190.417 52.6473 189.787 53.278C189.156 53.8513 188.812 54.3673 188.755 54.826C188.583 55.686 188.812 56.5173 189.443 57.32C190.073 58.1227 190.991 58.9253 192.195 59.728C194.201 60.932 196.294 62.1647 198.473 63.426C200.651 64.6873 202.486 65.9773 203.977 67.296C205.467 68.6147 206.471 70.0767 206.987 71.682C207.56 73.23 207.445 75.0073 206.643 77.014C206.012 78.562 204.837 79.8233 203.117 80.798C201.397 81.7727 199.505 82.5467 197.441 83.12C195.377 83.636 193.313 84.0087 191.249 84.238C189.185 84.41 187.436 84.496 186.003 84.496C185.659 84.496 185.229 84.3813 184.713 84.152C184.254 83.8653 183.795 83.55 183.337 83.206C182.935 82.862 182.563 82.518 182.219 82.174C181.932 81.7727 181.789 81.4287 181.789 81.142C181.789 80.11 182.247 79.3933 183.165 78.992C184.082 78.5907 185.028 78.39 186.003 78.39C187.379 78.39 188.841 78.3327 190.389 78.218C191.994 78.046 193.513 77.8167 194.947 77.53C196.38 77.186 197.67 76.756 198.817 76.24C199.963 75.724 200.766 75.0647 201.225 74.262C201.626 73.574 201.368 72.7713 200.451 71.854C199.591 70.8793 198.415 69.876 196.925 68.844C195.491 67.812 193.915 66.8087 192.195 65.834C190.532 64.8593 189.099 63.9707 187.895 63.168C186.691 62.3653 185.659 61.4193 184.799 60.33C183.939 59.1833 183.394 57.7787 183.165 56.116C183.107 54.6253 183.423 53.192 184.111 51.816C184.799 50.44 185.687 49.236 186.777 48.204C187.923 47.1147 189.213 46.2547 190.647 45.624C192.08 44.9933 193.513 44.678 194.947 44.678C197.412 44.7927 199.447 45.4807 201.053 46.742C202.658 47.946 203.604 49.752 203.891 52.16C203.891 52.9627 203.747 53.622 203.461 54.138C203.231 54.654 202.801 54.9693 202.171 55.084C201.368 55.1987 200.709 55.1127 200.193 54.826C199.734 54.482 199.476 54.052 199.419 53.536ZM218.499 41.152C218.499 42.528 218.47 44.076 218.413 45.796C218.413 47.516 218.413 49.2933 218.413 51.128C218.47 52.9627 218.499 54.8547 218.499 56.804C218.556 58.7533 218.614 60.6167 218.671 62.394C219.244 61.2473 219.932 60.1293 220.735 59.04C221.538 57.8933 222.426 56.89 223.401 56.03C224.433 55.17 225.494 54.482 226.583 53.966C227.73 53.45 228.962 53.192 230.281 53.192C231.714 53.192 232.976 53.6507 234.065 54.568C235.212 55.4853 236.186 56.718 236.989 58.266C237.849 59.7567 238.566 61.448 239.139 63.34C239.712 65.1747 240.171 67.0667 240.515 69.016C240.916 70.908 241.203 72.7427 241.375 74.52C241.547 76.24 241.69 77.7307 241.805 78.992C241.805 79.9093 241.576 80.6547 241.117 81.228C240.658 81.8013 240.114 82.088 239.483 82.088C239.024 82.088 238.451 81.8013 237.763 81.228C237.132 80.5973 236.674 79.852 236.387 78.992C236.215 78.304 236.043 77.3007 235.871 75.982C235.699 74.6633 235.498 73.2587 235.269 71.768C235.04 70.22 234.753 68.672 234.409 67.124C234.065 65.576 233.635 64.2 233.119 62.996C232.66 61.7347 232.087 60.76 231.399 60.072C230.711 59.384 229.908 59.126 228.991 59.298C227.558 59.5847 226.296 60.588 225.207 62.308C224.175 64.028 223.258 65.9773 222.455 68.156C221.71 70.3347 221.079 72.542 220.563 74.778C220.104 77.014 219.76 78.82 219.531 80.196C219.302 81.228 218.986 81.9447 218.585 82.346C218.241 82.69 217.84 82.862 217.381 82.862C216.922 82.862 216.492 82.6327 216.091 82.174C215.747 81.7153 215.403 81.1707 215.059 80.54C214.772 79.852 214.514 79.164 214.285 78.476C214.056 77.7307 213.912 77.1 213.855 76.584C213.568 73.488 213.339 70.5353 213.167 67.726C212.995 64.8593 212.852 61.9927 212.737 59.126C212.68 56.2593 212.651 53.3353 212.651 50.354C212.651 47.3153 212.708 44.076 212.823 40.636C212.823 37.7693 213.855 36.4793 215.919 36.766C216.607 36.8807 217.209 37.3967 217.725 38.314C218.241 39.174 218.499 40.12 218.499 41.152ZM277.784 82.174C277.555 82.862 277.297 83.55 277.01 84.238C276.723 84.926 276.379 85.528 275.978 86.044C275.634 86.56 275.233 86.9613 274.774 87.248C274.315 87.4773 273.828 87.506 273.312 87.334C272.624 87.2193 272.223 86.732 272.108 85.872C272.051 84.9547 272.165 84.066 272.452 83.206C272.853 81.83 273.427 80.024 274.172 77.788C274.975 75.4947 275.863 73.0007 276.838 70.306C277.87 67.6113 278.931 64.8307 280.02 61.964C281.167 59.04 282.256 56.2593 283.288 53.622C284.32 50.9847 285.266 48.6053 286.126 46.484C286.986 44.3053 287.645 42.614 288.104 41.41C288.276 41.066 288.534 40.7793 288.878 40.55C289.222 40.3207 289.566 40.206 289.91 40.206C290.311 40.206 290.684 40.3207 291.028 40.55C291.429 40.7793 291.745 41.152 291.974 41.668C292.433 42.872 292.461 44.0473 292.06 45.194C291.659 46.1113 291.085 47.5447 290.34 49.494C289.595 51.386 288.735 53.536 287.76 55.944C286.843 58.352 285.868 60.9033 284.836 63.598C283.804 66.2927 282.829 68.8727 281.912 71.338C280.995 73.746 280.163 75.9247 279.418 77.874C278.673 79.8233 278.128 81.2567 277.784 82.174ZM306.027 88.108C305.511 88.624 304.852 88.8247 304.049 88.71C303.304 88.5953 302.587 88.1653 301.899 87.42C301.383 86.8467 301.182 86.3307 301.297 85.872C301.469 85.356 301.727 84.8973 302.071 84.496C303.619 82.8907 305.282 81.1707 307.059 79.336C308.836 77.444 310.642 75.5807 312.477 73.746C314.312 71.9113 316.089 70.1053 317.809 68.328C319.586 66.5507 321.192 64.9167 322.625 63.426C320.618 61.2473 318.526 58.8967 316.347 56.374C314.226 53.8513 312.162 51.472 310.155 49.236C309.639 48.6627 309.037 48.0033 308.349 47.258C307.718 46.4553 307.088 45.6813 306.457 44.936C305.884 44.1907 305.339 43.5313 304.823 42.958C304.364 42.3273 304.049 41.84 303.877 41.496C303.418 40.636 303.304 39.948 303.533 39.432C303.82 38.8587 304.135 38.4287 304.479 38.142C304.708 37.97 305.052 37.8267 305.511 37.712C305.97 37.54 306.428 37.5687 306.887 37.798C307.346 38.0273 308.034 38.658 308.951 39.69C309.926 40.6647 311.015 41.8687 312.219 43.302C313.48 44.7353 314.799 46.312 316.175 48.032C317.608 49.6947 318.984 51.3 320.303 52.848C321.679 54.396 322.94 55.8293 324.087 57.148C325.291 58.4093 326.294 59.3553 327.097 59.986C327.613 60.3873 328.158 60.7887 328.731 61.19C329.304 61.534 329.648 62.136 329.763 62.996C329.82 63.6267 329.591 64.1713 329.075 64.63C328.559 65.0887 327.957 65.662 327.269 66.35C324.918 68.6433 322.94 70.6213 321.335 72.284C319.73 73.9467 318.182 75.552 316.691 77.1C315.258 78.648 313.71 80.282 312.047 82.002C310.442 83.6647 308.435 85.7 306.027 88.108Z" fill="#393131"/>
</g>
<defs>
<filter id="filter0_d" x="2.26953" y="35.562" width="331.502" height="74.8507" filterUnits="userSpaceOnUse" color-interpolation-filters="sRGB">
<feFlood flood-opacity="0" result="BackgroundImageFix"/>
<feColorMatrix in="SourceAlpha" type="matrix" values="0 0 0 0 0 0 0 0 0 0 0 0 0 0 0 0 0 0 127 0"/>
<feOffset dy="4"/>
<feGaussianBlur stdDeviation="2"/>
<feColorMatrix type="matrix" values="0 0 0 0 1 0 0 0 0 0.54 0 0 0 0 0 0 0 0 0.43 0"/>
<feBlend mode="normal" in2="BackgroundImageFix" result="effect1_dropShadow"/>
<feBlend mode="normal" in="SourceGraphic" in2="effect1_dropShadow" result="shape"/>
</filter>
</defs>
</svg>
